%TF.GenerationSoftware,KiCad,Pcbnew,9.0.6*%
%TF.CreationDate,2026-01-14T20:54:00+03:00*%
%TF.ProjectId,lab3,6c616233-2e6b-4696-9361-645f70636258,rev?*%
%TF.SameCoordinates,Original*%
%TF.FileFunction,Soldermask,Top*%
%TF.FilePolarity,Negative*%
%FSLAX46Y46*%
G04 Gerber Fmt 4.6, Leading zero omitted, Abs format (unit mm)*
G04 Created by KiCad (PCBNEW 9.0.6) date 2026-01-14 20:54:00*
%MOMM*%
%LPD*%
G01*
G04 APERTURE LIST*
G04 Aperture macros list*
%AMRoundRect*
0 Rectangle with rounded corners*
0 $1 Rounding radius*
0 $2 $3 $4 $5 $6 $7 $8 $9 X,Y pos of 4 corners*
0 Add a 4 corners polygon primitive as box body*
4,1,4,$2,$3,$4,$5,$6,$7,$8,$9,$2,$3,0*
0 Add four circle primitives for the rounded corners*
1,1,$1+$1,$2,$3*
1,1,$1+$1,$4,$5*
1,1,$1+$1,$6,$7*
1,1,$1+$1,$8,$9*
0 Add four rect primitives between the rounded corners*
20,1,$1+$1,$2,$3,$4,$5,0*
20,1,$1+$1,$4,$5,$6,$7,0*
20,1,$1+$1,$6,$7,$8,$9,0*
20,1,$1+$1,$8,$9,$2,$3,0*%
G04 Aperture macros list end*
%ADD10R,0.500000X0.350000*%
%ADD11RoundRect,0.225000X-0.250000X0.225000X-0.250000X-0.225000X0.250000X-0.225000X0.250000X0.225000X0*%
%ADD12RoundRect,0.375000X-0.625000X-0.375000X0.625000X-0.375000X0.625000X0.375000X-0.625000X0.375000X0*%
%ADD13RoundRect,0.500000X-0.500000X-1.400000X0.500000X-1.400000X0.500000X1.400000X-0.500000X1.400000X0*%
%ADD14R,1.700000X1.700000*%
%ADD15C,1.700000*%
%ADD16RoundRect,0.225000X-0.225000X-0.250000X0.225000X-0.250000X0.225000X0.250000X-0.225000X0.250000X0*%
%ADD17C,3.200000*%
%ADD18RoundRect,0.200000X-0.275000X0.200000X-0.275000X-0.200000X0.275000X-0.200000X0.275000X0.200000X0*%
%ADD19RoundRect,0.250000X-0.550000X-0.550000X0.550000X-0.550000X0.550000X0.550000X-0.550000X0.550000X0*%
%ADD20C,1.600000*%
%ADD21RoundRect,0.075000X-0.725000X-0.075000X0.725000X-0.075000X0.725000X0.075000X-0.725000X0.075000X0*%
%ADD22RoundRect,0.075000X-0.075000X-0.725000X0.075000X-0.725000X0.075000X0.725000X-0.075000X0.725000X0*%
%ADD23RoundRect,0.200000X-0.700000X-0.200000X0.700000X-0.200000X0.700000X0.200000X-0.700000X0.200000X0*%
%ADD24RoundRect,0.250000X0.275000X0.250000X-0.275000X0.250000X-0.275000X-0.250000X0.275000X-0.250000X0*%
%ADD25RoundRect,0.250000X0.850000X0.275000X-0.850000X0.275000X-0.850000X-0.275000X0.850000X-0.275000X0*%
%ADD26R,1.905000X2.000000*%
%ADD27O,1.905000X2.000000*%
%ADD28RoundRect,0.087500X-0.187500X-0.087500X0.187500X-0.087500X0.187500X0.087500X-0.187500X0.087500X0*%
%ADD29RoundRect,0.087500X-0.087500X-0.187500X0.087500X-0.187500X0.087500X0.187500X-0.087500X0.187500X0*%
%ADD30RoundRect,0.225000X0.225000X0.250000X-0.225000X0.250000X-0.225000X-0.250000X0.225000X-0.250000X0*%
%ADD31RoundRect,0.200000X0.275000X-0.200000X0.275000X0.200000X-0.275000X0.200000X-0.275000X-0.200000X0*%
%ADD32C,1.500000*%
%ADD33RoundRect,0.225000X0.250000X-0.225000X0.250000X0.225000X-0.250000X0.225000X-0.250000X-0.225000X0*%
%ADD34RoundRect,0.200000X0.200000X0.275000X-0.200000X0.275000X-0.200000X-0.275000X0.200000X-0.275000X0*%
%ADD35RoundRect,0.200000X-0.200000X-0.275000X0.200000X-0.275000X0.200000X0.275000X-0.200000X0.275000X0*%
%ADD36R,0.375000X0.350000*%
%ADD37R,0.350000X0.375000*%
G04 APERTURE END LIST*
%TO.C,X6*%
G36*
X47640000Y-149516000D02*
G01*
X45550000Y-149516000D01*
X45550000Y-147636000D01*
X47640000Y-147636000D01*
X47640000Y-149516000D01*
G37*
%TD*%
D10*
%TO.C,DD3*%
X82250000Y-136676000D03*
X82250000Y-136026000D03*
X82250000Y-135376000D03*
X82250000Y-134726000D03*
X80650000Y-134726000D03*
X80650000Y-135376000D03*
X80650000Y-136026000D03*
X80650000Y-136676000D03*
%TD*%
D11*
%TO.C,C20*%
X68770000Y-120301000D03*
X68770000Y-121851000D03*
%TD*%
%TO.C,C32*%
X86650000Y-130701000D03*
X86650000Y-132251000D03*
%TD*%
%TO.C,C22*%
X68770000Y-124001000D03*
X68770000Y-125551000D03*
%TD*%
D12*
%TO.C,DA2*%
X66575000Y-99676000D03*
X66575000Y-101976000D03*
D13*
X72875000Y-101976000D03*
D12*
X66575000Y-104276000D03*
%TD*%
D11*
%TO.C,C6*%
X66325000Y-106401000D03*
X66325000Y-107951000D03*
%TD*%
D14*
%TO.C,X7*%
X103065000Y-106821000D03*
D15*
X103065000Y-109361000D03*
X103065000Y-111901000D03*
X103065000Y-114441000D03*
X103065000Y-116981000D03*
%TD*%
D14*
%TO.C,X1*%
X49925000Y-101301000D03*
D15*
X47385000Y-101301000D03*
%TD*%
D16*
%TO.C,C38*%
X79215000Y-144101000D03*
X80765000Y-144101000D03*
%TD*%
D11*
%TO.C,C1*%
X71212500Y-140651000D03*
X71212500Y-142201000D03*
%TD*%
D17*
%TO.C,MH1*%
X48400000Y-93200000D03*
%TD*%
D16*
%TO.C,C27*%
X87675000Y-129101000D03*
X89225000Y-129101000D03*
%TD*%
D11*
%TO.C,C4*%
X60525000Y-103801000D03*
X60525000Y-105351000D03*
%TD*%
D16*
%TO.C,C34*%
X60675000Y-133301000D03*
X62225000Y-133301000D03*
%TD*%
D11*
%TO.C,C26*%
X93050000Y-132901000D03*
X93050000Y-134451000D03*
%TD*%
%TO.C,C19*%
X84250000Y-135601000D03*
X84250000Y-137151000D03*
%TD*%
%TO.C,C3*%
X62125000Y-103801000D03*
X62125000Y-105351000D03*
%TD*%
D18*
%TO.C,R3*%
X63450000Y-121676000D03*
X63450000Y-123326000D03*
%TD*%
D16*
%TO.C,C14*%
X57675000Y-125501000D03*
X59225000Y-125501000D03*
%TD*%
D19*
%TO.C,SB1*%
X58045000Y-129713500D03*
D20*
X65665000Y-129713500D03*
%TD*%
D11*
%TO.C,C25*%
X94850000Y-132901000D03*
X94850000Y-134451000D03*
%TD*%
%TO.C,C40*%
X66270000Y-118001000D03*
X66270000Y-119551000D03*
%TD*%
D16*
%TO.C,C13*%
X66037500Y-138451000D03*
X67587500Y-138451000D03*
%TD*%
D17*
%TO.C,MH3*%
X48400000Y-155600000D03*
%TD*%
D21*
%TO.C,DD1*%
X71875000Y-115001000D03*
X71875000Y-115501000D03*
X71875000Y-116001000D03*
X71875000Y-116501000D03*
X71875000Y-117001000D03*
X71875000Y-117501000D03*
X71875000Y-118001000D03*
X71875000Y-118501000D03*
X71875000Y-119001000D03*
X71875000Y-119501000D03*
X71875000Y-120001000D03*
X71875000Y-120501000D03*
X71875000Y-121001000D03*
X71875000Y-121501000D03*
X71875000Y-122001000D03*
X71875000Y-122501000D03*
X71875000Y-123001000D03*
X71875000Y-123501000D03*
X71875000Y-124001000D03*
X71875000Y-124501000D03*
X71875000Y-125001000D03*
X71875000Y-125501000D03*
X71875000Y-126001000D03*
X71875000Y-126501000D03*
X71875000Y-127001000D03*
D22*
X73550000Y-128676000D03*
X74050000Y-128676000D03*
X74550000Y-128676000D03*
X75050000Y-128676000D03*
X75550000Y-128676000D03*
X76050000Y-128676000D03*
X76550000Y-128676000D03*
X77050000Y-128676000D03*
X77550000Y-128676000D03*
X78050000Y-128676000D03*
X78550000Y-128676000D03*
X79050000Y-128676000D03*
X79550000Y-128676000D03*
X80050000Y-128676000D03*
X80550000Y-128676000D03*
X81050000Y-128676000D03*
X81550000Y-128676000D03*
X82050000Y-128676000D03*
X82550000Y-128676000D03*
X83050000Y-128676000D03*
X83550000Y-128676000D03*
X84050000Y-128676000D03*
X84550000Y-128676000D03*
X85050000Y-128676000D03*
X85550000Y-128676000D03*
D21*
X87225000Y-127001000D03*
X87225000Y-126501000D03*
X87225000Y-126001000D03*
X87225000Y-125501000D03*
X87225000Y-125001000D03*
X87225000Y-124501000D03*
X87225000Y-124001000D03*
X87225000Y-123501000D03*
X87225000Y-123001000D03*
X87225000Y-122501000D03*
X87225000Y-122001000D03*
X87225000Y-121501000D03*
X87225000Y-121001000D03*
X87225000Y-120501000D03*
X87225000Y-120001000D03*
X87225000Y-119501000D03*
X87225000Y-119001000D03*
X87225000Y-118501000D03*
X87225000Y-118001000D03*
X87225000Y-117501000D03*
X87225000Y-117001000D03*
X87225000Y-116501000D03*
X87225000Y-116001000D03*
X87225000Y-115501000D03*
X87225000Y-115001000D03*
D22*
X85550000Y-113326000D03*
X85050000Y-113326000D03*
X84550000Y-113326000D03*
X84050000Y-113326000D03*
X83550000Y-113326000D03*
X83050000Y-113326000D03*
X82550000Y-113326000D03*
X82050000Y-113326000D03*
X81550000Y-113326000D03*
X81050000Y-113326000D03*
X80550000Y-113326000D03*
X80050000Y-113326000D03*
X79550000Y-113326000D03*
X79050000Y-113326000D03*
X78550000Y-113326000D03*
X78050000Y-113326000D03*
X77550000Y-113326000D03*
X77050000Y-113326000D03*
X76550000Y-113326000D03*
X76050000Y-113326000D03*
X75550000Y-113326000D03*
X75050000Y-113326000D03*
X74550000Y-113326000D03*
X74050000Y-113326000D03*
X73550000Y-113326000D03*
%TD*%
D11*
%TO.C,C5*%
X64325000Y-105801000D03*
X64325000Y-107351000D03*
%TD*%
%TO.C,C12*%
X54925000Y-103826000D03*
X54925000Y-105376000D03*
%TD*%
D16*
%TO.C,C10*%
X64995000Y-125001000D03*
X66545000Y-125001000D03*
%TD*%
D23*
%TO.C,DD5*%
X50850000Y-135701000D03*
X50850000Y-136801000D03*
X50850000Y-137901000D03*
X50850000Y-139001000D03*
X50850000Y-140101000D03*
X50850000Y-141201000D03*
X50850000Y-142301000D03*
X50850000Y-145301000D03*
X50850000Y-146401000D03*
X50850000Y-147501000D03*
X50850000Y-148601000D03*
X50850000Y-149701000D03*
X62850000Y-149701000D03*
X62850000Y-148601000D03*
X62850000Y-147501000D03*
X62850000Y-146401000D03*
X62850000Y-145301000D03*
X62850000Y-142301000D03*
X62850000Y-141201000D03*
X62850000Y-140101000D03*
X62850000Y-139001000D03*
X62850000Y-137901000D03*
X62850000Y-136801000D03*
X62850000Y-135701000D03*
%TD*%
D18*
%TO.C,R2*%
X71412500Y-133826000D03*
X71412500Y-135476000D03*
%TD*%
D24*
%TO.C,X6*%
X48175000Y-148576000D03*
D25*
X46650000Y-150051000D03*
X46650000Y-147101000D03*
%TD*%
D26*
%TO.C,DA1*%
X55185000Y-101526000D03*
D27*
X57725000Y-101526000D03*
X60265000Y-101526000D03*
%TD*%
D16*
%TO.C,C30*%
X50475000Y-110161000D03*
X52025000Y-110161000D03*
%TD*%
D11*
%TO.C,C35*%
X68770000Y-127501000D03*
X68770000Y-129051000D03*
%TD*%
D17*
%TO.C,MH2*%
X110800000Y-93200000D03*
%TD*%
D14*
%TO.C,X4*%
X67000000Y-91600000D03*
D15*
X69540000Y-91600000D03*
X72080000Y-91600000D03*
%TD*%
D28*
%TO.C,DD2*%
X92225000Y-136326000D03*
X92225000Y-136826000D03*
X92225000Y-137326000D03*
X92225000Y-137826000D03*
X92225000Y-138326000D03*
D29*
X92950000Y-138551000D03*
X93450000Y-138551000D03*
X93950000Y-138551000D03*
D28*
X94675000Y-138326000D03*
X94675000Y-137826000D03*
X94675000Y-137326000D03*
X94675000Y-136826000D03*
X94675000Y-136326000D03*
D29*
X93950000Y-136101000D03*
X93450000Y-136101000D03*
X92950000Y-136101000D03*
%TD*%
D11*
%TO.C,C31*%
X95250000Y-120101000D03*
X95250000Y-121651000D03*
%TD*%
%TO.C,C37*%
X65250000Y-133326000D03*
X65250000Y-134876000D03*
%TD*%
D14*
%TO.C,X3*%
X47250000Y-110621000D03*
D15*
X47250000Y-113161000D03*
X47250000Y-115701000D03*
%TD*%
D16*
%TO.C,C29*%
X89075000Y-113901000D03*
X90625000Y-113901000D03*
%TD*%
D30*
%TO.C,C17*%
X81825000Y-94281000D03*
X80275000Y-94281000D03*
%TD*%
D14*
%TO.C,X_RC1*%
X85850000Y-94681000D03*
D15*
X85850000Y-97221000D03*
X85850000Y-99761000D03*
X85850000Y-102301000D03*
%TD*%
D31*
%TO.C,R1*%
X68812500Y-135476000D03*
X68812500Y-133826000D03*
%TD*%
D11*
%TO.C,C18*%
X68770000Y-117226000D03*
X68770000Y-118776000D03*
%TD*%
D14*
%TO.C,X2*%
X98650000Y-120996000D03*
D15*
X98650000Y-123536000D03*
X98650000Y-126076000D03*
%TD*%
D16*
%TO.C,C33*%
X73995000Y-111001000D03*
X75545000Y-111001000D03*
%TD*%
D11*
%TO.C,C11*%
X53325000Y-103826000D03*
X53325000Y-105376000D03*
%TD*%
D32*
%TO.C,ZQ1*%
X54250000Y-120701000D03*
X59150000Y-120701000D03*
%TD*%
D33*
%TO.C,C21*%
X78850000Y-137976000D03*
X78850000Y-136426000D03*
%TD*%
D30*
%TO.C,C15*%
X55025000Y-125501000D03*
X53475000Y-125501000D03*
%TD*%
D11*
%TO.C,C28*%
X96850000Y-133301000D03*
X96850000Y-134851000D03*
%TD*%
D30*
%TO.C,C39*%
X66800000Y-94400000D03*
X65250000Y-94400000D03*
%TD*%
%TO.C,C16*%
X71200000Y-111101000D03*
X69650000Y-111101000D03*
%TD*%
D34*
%TO.C,R5*%
X95875000Y-123476000D03*
X94225000Y-123476000D03*
%TD*%
D11*
%TO.C,C8*%
X75325000Y-103401000D03*
X75325000Y-104951000D03*
%TD*%
D30*
%TO.C,C9*%
X66625000Y-123301000D03*
X65075000Y-123301000D03*
%TD*%
D14*
%TO.C,X5*%
X79910000Y-147501000D03*
D15*
X82450000Y-147501000D03*
X84990000Y-147501000D03*
%TD*%
D35*
%TO.C,R6*%
X50000000Y-113161000D03*
X51650000Y-113161000D03*
%TD*%
D11*
%TO.C,C23*%
X90450000Y-132926000D03*
X90450000Y-134476000D03*
%TD*%
D34*
%TO.C,R4*%
X82650000Y-102881000D03*
X81000000Y-102881000D03*
%TD*%
D35*
%TO.C,R7*%
X69210000Y-94400000D03*
X70860000Y-94400000D03*
%TD*%
D33*
%TO.C,C2*%
X69212500Y-142136000D03*
X69212500Y-140586000D03*
%TD*%
%TO.C,C7*%
X75325000Y-101551000D03*
X75325000Y-100001000D03*
%TD*%
D16*
%TO.C,C24*%
X74475000Y-131001000D03*
X76025000Y-131001000D03*
%TD*%
D36*
%TO.C,DD4*%
X69487500Y-137151000D03*
X69487500Y-137651000D03*
X69487500Y-138151000D03*
X69487500Y-138651000D03*
D37*
X70000000Y-138663500D03*
X70500000Y-138663500D03*
D36*
X71012500Y-138651000D03*
X71012500Y-138151000D03*
X71012500Y-137651000D03*
X71012500Y-137151000D03*
D37*
X70500000Y-137138500D03*
X70000000Y-137138500D03*
%TD*%
D16*
%TO.C,C36*%
X89475000Y-115901000D03*
X91025000Y-115901000D03*
%TD*%
D31*
%TO.C,R8*%
X82790000Y-144551000D03*
X82790000Y-142901000D03*
%TD*%
D17*
%TO.C,MH3*%
X110800000Y-155600000D03*
%TD*%
M02*
