M48
; DRILL file {KiCad 9.0.6} date 2026-01-14T21:02:12+0300
; FORMAT={-:-/ absolute / metric / decimal}
; #@! TF.CreationDate,2026-01-14T21:02:12+03:00
; #@! TF.GenerationSoftware,Kicad,Pcbnew,9.0.6
; #@! TF.FileFunction,Plated,1,2,PTH
FMAT,2
METRIC
; #@! TA.AperFunction,Plated,PTH,ViaDrill
T1C0.100
; #@! TA.AperFunction,Plated,PTH,ComponentDrill
T2C0.800
; #@! TA.AperFunction,Plated,PTH,ComponentDrill
T3C1.000
; #@! TA.AperFunction,Plated,PTH,ComponentDrill
T4C1.100
%
G90
G05
T1
X55.2Y-124.6
X63.025Y-96.225
X64.4Y-119.175
X65.2Y-121.2
X65.8Y-142.6
X65.8Y-145.0
X66.576Y-134.776
X66.6Y-134.0
X67.4Y-137.0
X67.6Y-115.8
X68.4Y-139.6
X70.0Y-123.4
X70.0Y-129.2
X70.035Y-126.235
X70.4Y-124.65
X70.6Y-117.501
X70.6Y-120.001
X70.8Y-108.8
X70.8Y-143.6
X71.8Y-112.4
X71.812Y-129.612
X72.2Y-132.6
X72.6Y-131.001
X72.6Y-143.4
X75.2Y-109.2
X76.0Y-133.8
X76.8Y-107.8
X77.0Y-101.2
X77.0Y-109.8
X77.2Y-91.6
X79.8Y-130.6
X81.2Y-145.4
X82.871Y-133.497
X84.171Y-134.829
X87.423Y-133.777
X87.8Y-132.2
X88.0Y-135.4
X89.4Y-133.8
X92.699Y-115.901
X93.6Y-117.6
T2
X54.25Y-120.701
X58.045Y-129.713
X59.15Y-120.701
X65.665Y-129.713
T3
X47.25Y-110.621
X47.25Y-113.161
X47.25Y-115.701
X47.385Y-101.301
X49.925Y-101.301
X67.0Y-91.6
X69.54Y-91.6
X72.08Y-91.6
X79.91Y-147.501
X82.45Y-147.501
X84.99Y-147.501
X85.85Y-94.681
X85.85Y-97.221
X85.85Y-99.761
X85.85Y-102.301
X98.65Y-120.996
X98.65Y-123.536
X98.65Y-126.076
X103.065Y-106.821
X103.065Y-109.361
X103.065Y-111.901
X103.065Y-114.441
X103.065Y-116.981
T4
X55.185Y-101.526
X57.725Y-101.526
X60.265Y-101.526
M30
