%TF.GenerationSoftware,KiCad,Pcbnew,9.0.6*%
%TF.CreationDate,2026-01-14T20:54:00+03:00*%
%TF.ProjectId,lab3,6c616233-2e6b-4696-9361-645f70636258,rev?*%
%TF.SameCoordinates,Original*%
%TF.FileFunction,Legend,Top*%
%TF.FilePolarity,Positive*%
%FSLAX46Y46*%
G04 Gerber Fmt 4.6, Leading zero omitted, Abs format (unit mm)*
G04 Created by KiCad (PCBNEW 9.0.6) date 2026-01-14 20:54:00*
%MOMM*%
%LPD*%
G01*
G04 APERTURE LIST*
%ADD10C,0.150000*%
%ADD11C,0.100000*%
%ADD12C,0.120000*%
G04 APERTURE END LIST*
D10*
X79961905Y-138854819D02*
X79961905Y-137854819D01*
X79961905Y-137854819D02*
X80200000Y-137854819D01*
X80200000Y-137854819D02*
X80342857Y-137902438D01*
X80342857Y-137902438D02*
X80438095Y-137997676D01*
X80438095Y-137997676D02*
X80485714Y-138092914D01*
X80485714Y-138092914D02*
X80533333Y-138283390D01*
X80533333Y-138283390D02*
X80533333Y-138426247D01*
X80533333Y-138426247D02*
X80485714Y-138616723D01*
X80485714Y-138616723D02*
X80438095Y-138711961D01*
X80438095Y-138711961D02*
X80342857Y-138807200D01*
X80342857Y-138807200D02*
X80200000Y-138854819D01*
X80200000Y-138854819D02*
X79961905Y-138854819D01*
X80961905Y-138854819D02*
X80961905Y-137854819D01*
X80961905Y-137854819D02*
X81200000Y-137854819D01*
X81200000Y-137854819D02*
X81342857Y-137902438D01*
X81342857Y-137902438D02*
X81438095Y-137997676D01*
X81438095Y-137997676D02*
X81485714Y-138092914D01*
X81485714Y-138092914D02*
X81533333Y-138283390D01*
X81533333Y-138283390D02*
X81533333Y-138426247D01*
X81533333Y-138426247D02*
X81485714Y-138616723D01*
X81485714Y-138616723D02*
X81438095Y-138711961D01*
X81438095Y-138711961D02*
X81342857Y-138807200D01*
X81342857Y-138807200D02*
X81200000Y-138854819D01*
X81200000Y-138854819D02*
X80961905Y-138854819D01*
X81866667Y-137854819D02*
X82485714Y-137854819D01*
X82485714Y-137854819D02*
X82152381Y-138235771D01*
X82152381Y-138235771D02*
X82295238Y-138235771D01*
X82295238Y-138235771D02*
X82390476Y-138283390D01*
X82390476Y-138283390D02*
X82438095Y-138331009D01*
X82438095Y-138331009D02*
X82485714Y-138426247D01*
X82485714Y-138426247D02*
X82485714Y-138664342D01*
X82485714Y-138664342D02*
X82438095Y-138759580D01*
X82438095Y-138759580D02*
X82390476Y-138807200D01*
X82390476Y-138807200D02*
X82295238Y-138854819D01*
X82295238Y-138854819D02*
X82009524Y-138854819D01*
X82009524Y-138854819D02*
X81914286Y-138807200D01*
X81914286Y-138807200D02*
X81866667Y-138759580D01*
X70559580Y-121718857D02*
X70607200Y-121766476D01*
X70607200Y-121766476D02*
X70654819Y-121909333D01*
X70654819Y-121909333D02*
X70654819Y-122004571D01*
X70654819Y-122004571D02*
X70607200Y-122147428D01*
X70607200Y-122147428D02*
X70511961Y-122242666D01*
X70511961Y-122242666D02*
X70416723Y-122290285D01*
X70416723Y-122290285D02*
X70226247Y-122337904D01*
X70226247Y-122337904D02*
X70083390Y-122337904D01*
X70083390Y-122337904D02*
X69892914Y-122290285D01*
X69892914Y-122290285D02*
X69797676Y-122242666D01*
X69797676Y-122242666D02*
X69702438Y-122147428D01*
X69702438Y-122147428D02*
X69654819Y-122004571D01*
X69654819Y-122004571D02*
X69654819Y-121909333D01*
X69654819Y-121909333D02*
X69702438Y-121766476D01*
X69702438Y-121766476D02*
X69750057Y-121718857D01*
X69750057Y-121337904D02*
X69702438Y-121290285D01*
X69702438Y-121290285D02*
X69654819Y-121195047D01*
X69654819Y-121195047D02*
X69654819Y-120956952D01*
X69654819Y-120956952D02*
X69702438Y-120861714D01*
X69702438Y-120861714D02*
X69750057Y-120814095D01*
X69750057Y-120814095D02*
X69845295Y-120766476D01*
X69845295Y-120766476D02*
X69940533Y-120766476D01*
X69940533Y-120766476D02*
X70083390Y-120814095D01*
X70083390Y-120814095D02*
X70654819Y-121385523D01*
X70654819Y-121385523D02*
X70654819Y-120766476D01*
X69654819Y-120147428D02*
X69654819Y-120052190D01*
X69654819Y-120052190D02*
X69702438Y-119956952D01*
X69702438Y-119956952D02*
X69750057Y-119909333D01*
X69750057Y-119909333D02*
X69845295Y-119861714D01*
X69845295Y-119861714D02*
X70035771Y-119814095D01*
X70035771Y-119814095D02*
X70273866Y-119814095D01*
X70273866Y-119814095D02*
X70464342Y-119861714D01*
X70464342Y-119861714D02*
X70559580Y-119909333D01*
X70559580Y-119909333D02*
X70607200Y-119956952D01*
X70607200Y-119956952D02*
X70654819Y-120052190D01*
X70654819Y-120052190D02*
X70654819Y-120147428D01*
X70654819Y-120147428D02*
X70607200Y-120242666D01*
X70607200Y-120242666D02*
X70559580Y-120290285D01*
X70559580Y-120290285D02*
X70464342Y-120337904D01*
X70464342Y-120337904D02*
X70273866Y-120385523D01*
X70273866Y-120385523D02*
X70035771Y-120385523D01*
X70035771Y-120385523D02*
X69845295Y-120337904D01*
X69845295Y-120337904D02*
X69750057Y-120290285D01*
X69750057Y-120290285D02*
X69702438Y-120242666D01*
X69702438Y-120242666D02*
X69654819Y-120147428D01*
X88759580Y-133242857D02*
X88807200Y-133290476D01*
X88807200Y-133290476D02*
X88854819Y-133433333D01*
X88854819Y-133433333D02*
X88854819Y-133528571D01*
X88854819Y-133528571D02*
X88807200Y-133671428D01*
X88807200Y-133671428D02*
X88711961Y-133766666D01*
X88711961Y-133766666D02*
X88616723Y-133814285D01*
X88616723Y-133814285D02*
X88426247Y-133861904D01*
X88426247Y-133861904D02*
X88283390Y-133861904D01*
X88283390Y-133861904D02*
X88092914Y-133814285D01*
X88092914Y-133814285D02*
X87997676Y-133766666D01*
X87997676Y-133766666D02*
X87902438Y-133671428D01*
X87902438Y-133671428D02*
X87854819Y-133528571D01*
X87854819Y-133528571D02*
X87854819Y-133433333D01*
X87854819Y-133433333D02*
X87902438Y-133290476D01*
X87902438Y-133290476D02*
X87950057Y-133242857D01*
X87854819Y-132909523D02*
X87854819Y-132290476D01*
X87854819Y-132290476D02*
X88235771Y-132623809D01*
X88235771Y-132623809D02*
X88235771Y-132480952D01*
X88235771Y-132480952D02*
X88283390Y-132385714D01*
X88283390Y-132385714D02*
X88331009Y-132338095D01*
X88331009Y-132338095D02*
X88426247Y-132290476D01*
X88426247Y-132290476D02*
X88664342Y-132290476D01*
X88664342Y-132290476D02*
X88759580Y-132338095D01*
X88759580Y-132338095D02*
X88807200Y-132385714D01*
X88807200Y-132385714D02*
X88854819Y-132480952D01*
X88854819Y-132480952D02*
X88854819Y-132766666D01*
X88854819Y-132766666D02*
X88807200Y-132861904D01*
X88807200Y-132861904D02*
X88759580Y-132909523D01*
X87950057Y-131909523D02*
X87902438Y-131861904D01*
X87902438Y-131861904D02*
X87854819Y-131766666D01*
X87854819Y-131766666D02*
X87854819Y-131528571D01*
X87854819Y-131528571D02*
X87902438Y-131433333D01*
X87902438Y-131433333D02*
X87950057Y-131385714D01*
X87950057Y-131385714D02*
X88045295Y-131338095D01*
X88045295Y-131338095D02*
X88140533Y-131338095D01*
X88140533Y-131338095D02*
X88283390Y-131385714D01*
X88283390Y-131385714D02*
X88854819Y-131957142D01*
X88854819Y-131957142D02*
X88854819Y-131338095D01*
X70559580Y-125418857D02*
X70607200Y-125466476D01*
X70607200Y-125466476D02*
X70654819Y-125609333D01*
X70654819Y-125609333D02*
X70654819Y-125704571D01*
X70654819Y-125704571D02*
X70607200Y-125847428D01*
X70607200Y-125847428D02*
X70511961Y-125942666D01*
X70511961Y-125942666D02*
X70416723Y-125990285D01*
X70416723Y-125990285D02*
X70226247Y-126037904D01*
X70226247Y-126037904D02*
X70083390Y-126037904D01*
X70083390Y-126037904D02*
X69892914Y-125990285D01*
X69892914Y-125990285D02*
X69797676Y-125942666D01*
X69797676Y-125942666D02*
X69702438Y-125847428D01*
X69702438Y-125847428D02*
X69654819Y-125704571D01*
X69654819Y-125704571D02*
X69654819Y-125609333D01*
X69654819Y-125609333D02*
X69702438Y-125466476D01*
X69702438Y-125466476D02*
X69750057Y-125418857D01*
X69750057Y-125037904D02*
X69702438Y-124990285D01*
X69702438Y-124990285D02*
X69654819Y-124895047D01*
X69654819Y-124895047D02*
X69654819Y-124656952D01*
X69654819Y-124656952D02*
X69702438Y-124561714D01*
X69702438Y-124561714D02*
X69750057Y-124514095D01*
X69750057Y-124514095D02*
X69845295Y-124466476D01*
X69845295Y-124466476D02*
X69940533Y-124466476D01*
X69940533Y-124466476D02*
X70083390Y-124514095D01*
X70083390Y-124514095D02*
X70654819Y-125085523D01*
X70654819Y-125085523D02*
X70654819Y-124466476D01*
X69750057Y-124085523D02*
X69702438Y-124037904D01*
X69702438Y-124037904D02*
X69654819Y-123942666D01*
X69654819Y-123942666D02*
X69654819Y-123704571D01*
X69654819Y-123704571D02*
X69702438Y-123609333D01*
X69702438Y-123609333D02*
X69750057Y-123561714D01*
X69750057Y-123561714D02*
X69845295Y-123514095D01*
X69845295Y-123514095D02*
X69940533Y-123514095D01*
X69940533Y-123514095D02*
X70083390Y-123561714D01*
X70083390Y-123561714D02*
X70654819Y-124133142D01*
X70654819Y-124133142D02*
X70654819Y-123514095D01*
X68558333Y-97930819D02*
X68558333Y-96930819D01*
X68558333Y-96930819D02*
X68796428Y-96930819D01*
X68796428Y-96930819D02*
X68939285Y-96978438D01*
X68939285Y-96978438D02*
X69034523Y-97073676D01*
X69034523Y-97073676D02*
X69082142Y-97168914D01*
X69082142Y-97168914D02*
X69129761Y-97359390D01*
X69129761Y-97359390D02*
X69129761Y-97502247D01*
X69129761Y-97502247D02*
X69082142Y-97692723D01*
X69082142Y-97692723D02*
X69034523Y-97787961D01*
X69034523Y-97787961D02*
X68939285Y-97883200D01*
X68939285Y-97883200D02*
X68796428Y-97930819D01*
X68796428Y-97930819D02*
X68558333Y-97930819D01*
X69510714Y-97645104D02*
X69986904Y-97645104D01*
X69415476Y-97930819D02*
X69748809Y-96930819D01*
X69748809Y-96930819D02*
X70082142Y-97930819D01*
X70367857Y-97026057D02*
X70415476Y-96978438D01*
X70415476Y-96978438D02*
X70510714Y-96930819D01*
X70510714Y-96930819D02*
X70748809Y-96930819D01*
X70748809Y-96930819D02*
X70844047Y-96978438D01*
X70844047Y-96978438D02*
X70891666Y-97026057D01*
X70891666Y-97026057D02*
X70939285Y-97121295D01*
X70939285Y-97121295D02*
X70939285Y-97216533D01*
X70939285Y-97216533D02*
X70891666Y-97359390D01*
X70891666Y-97359390D02*
X70320238Y-97930819D01*
X70320238Y-97930819D02*
X70939285Y-97930819D01*
X66233333Y-109959580D02*
X66185714Y-110007200D01*
X66185714Y-110007200D02*
X66042857Y-110054819D01*
X66042857Y-110054819D02*
X65947619Y-110054819D01*
X65947619Y-110054819D02*
X65804762Y-110007200D01*
X65804762Y-110007200D02*
X65709524Y-109911961D01*
X65709524Y-109911961D02*
X65661905Y-109816723D01*
X65661905Y-109816723D02*
X65614286Y-109626247D01*
X65614286Y-109626247D02*
X65614286Y-109483390D01*
X65614286Y-109483390D02*
X65661905Y-109292914D01*
X65661905Y-109292914D02*
X65709524Y-109197676D01*
X65709524Y-109197676D02*
X65804762Y-109102438D01*
X65804762Y-109102438D02*
X65947619Y-109054819D01*
X65947619Y-109054819D02*
X66042857Y-109054819D01*
X66042857Y-109054819D02*
X66185714Y-109102438D01*
X66185714Y-109102438D02*
X66233333Y-109150057D01*
X67090476Y-109054819D02*
X66900000Y-109054819D01*
X66900000Y-109054819D02*
X66804762Y-109102438D01*
X66804762Y-109102438D02*
X66757143Y-109150057D01*
X66757143Y-109150057D02*
X66661905Y-109292914D01*
X66661905Y-109292914D02*
X66614286Y-109483390D01*
X66614286Y-109483390D02*
X66614286Y-109864342D01*
X66614286Y-109864342D02*
X66661905Y-109959580D01*
X66661905Y-109959580D02*
X66709524Y-110007200D01*
X66709524Y-110007200D02*
X66804762Y-110054819D01*
X66804762Y-110054819D02*
X66995238Y-110054819D01*
X66995238Y-110054819D02*
X67090476Y-110007200D01*
X67090476Y-110007200D02*
X67138095Y-109959580D01*
X67138095Y-109959580D02*
X67185714Y-109864342D01*
X67185714Y-109864342D02*
X67185714Y-109626247D01*
X67185714Y-109626247D02*
X67138095Y-109531009D01*
X67138095Y-109531009D02*
X67090476Y-109483390D01*
X67090476Y-109483390D02*
X66995238Y-109435771D01*
X66995238Y-109435771D02*
X66804762Y-109435771D01*
X66804762Y-109435771D02*
X66709524Y-109483390D01*
X66709524Y-109483390D02*
X66661905Y-109531009D01*
X66661905Y-109531009D02*
X66614286Y-109626247D01*
X106990476Y-103454819D02*
X107657142Y-104454819D01*
X107657142Y-103454819D02*
X106990476Y-104454819D01*
X107942857Y-103454819D02*
X108609523Y-103454819D01*
X108609523Y-103454819D02*
X108180952Y-104454819D01*
X46590476Y-98254819D02*
X47257142Y-99254819D01*
X47257142Y-98254819D02*
X46590476Y-99254819D01*
X48161904Y-99254819D02*
X47590476Y-99254819D01*
X47876190Y-99254819D02*
X47876190Y-98254819D01*
X47876190Y-98254819D02*
X47780952Y-98397676D01*
X47780952Y-98397676D02*
X47685714Y-98492914D01*
X47685714Y-98492914D02*
X47590476Y-98540533D01*
X76157142Y-144559580D02*
X76109523Y-144607200D01*
X76109523Y-144607200D02*
X75966666Y-144654819D01*
X75966666Y-144654819D02*
X75871428Y-144654819D01*
X75871428Y-144654819D02*
X75728571Y-144607200D01*
X75728571Y-144607200D02*
X75633333Y-144511961D01*
X75633333Y-144511961D02*
X75585714Y-144416723D01*
X75585714Y-144416723D02*
X75538095Y-144226247D01*
X75538095Y-144226247D02*
X75538095Y-144083390D01*
X75538095Y-144083390D02*
X75585714Y-143892914D01*
X75585714Y-143892914D02*
X75633333Y-143797676D01*
X75633333Y-143797676D02*
X75728571Y-143702438D01*
X75728571Y-143702438D02*
X75871428Y-143654819D01*
X75871428Y-143654819D02*
X75966666Y-143654819D01*
X75966666Y-143654819D02*
X76109523Y-143702438D01*
X76109523Y-143702438D02*
X76157142Y-143750057D01*
X76490476Y-143654819D02*
X77109523Y-143654819D01*
X77109523Y-143654819D02*
X76776190Y-144035771D01*
X76776190Y-144035771D02*
X76919047Y-144035771D01*
X76919047Y-144035771D02*
X77014285Y-144083390D01*
X77014285Y-144083390D02*
X77061904Y-144131009D01*
X77061904Y-144131009D02*
X77109523Y-144226247D01*
X77109523Y-144226247D02*
X77109523Y-144464342D01*
X77109523Y-144464342D02*
X77061904Y-144559580D01*
X77061904Y-144559580D02*
X77014285Y-144607200D01*
X77014285Y-144607200D02*
X76919047Y-144654819D01*
X76919047Y-144654819D02*
X76633333Y-144654819D01*
X76633333Y-144654819D02*
X76538095Y-144607200D01*
X76538095Y-144607200D02*
X76490476Y-144559580D01*
X77680952Y-144083390D02*
X77585714Y-144035771D01*
X77585714Y-144035771D02*
X77538095Y-143988152D01*
X77538095Y-143988152D02*
X77490476Y-143892914D01*
X77490476Y-143892914D02*
X77490476Y-143845295D01*
X77490476Y-143845295D02*
X77538095Y-143750057D01*
X77538095Y-143750057D02*
X77585714Y-143702438D01*
X77585714Y-143702438D02*
X77680952Y-143654819D01*
X77680952Y-143654819D02*
X77871428Y-143654819D01*
X77871428Y-143654819D02*
X77966666Y-143702438D01*
X77966666Y-143702438D02*
X78014285Y-143750057D01*
X78014285Y-143750057D02*
X78061904Y-143845295D01*
X78061904Y-143845295D02*
X78061904Y-143892914D01*
X78061904Y-143892914D02*
X78014285Y-143988152D01*
X78014285Y-143988152D02*
X77966666Y-144035771D01*
X77966666Y-144035771D02*
X77871428Y-144083390D01*
X77871428Y-144083390D02*
X77680952Y-144083390D01*
X77680952Y-144083390D02*
X77585714Y-144131009D01*
X77585714Y-144131009D02*
X77538095Y-144178628D01*
X77538095Y-144178628D02*
X77490476Y-144273866D01*
X77490476Y-144273866D02*
X77490476Y-144464342D01*
X77490476Y-144464342D02*
X77538095Y-144559580D01*
X77538095Y-144559580D02*
X77585714Y-144607200D01*
X77585714Y-144607200D02*
X77680952Y-144654819D01*
X77680952Y-144654819D02*
X77871428Y-144654819D01*
X77871428Y-144654819D02*
X77966666Y-144607200D01*
X77966666Y-144607200D02*
X78014285Y-144559580D01*
X78014285Y-144559580D02*
X78061904Y-144464342D01*
X78061904Y-144464342D02*
X78061904Y-144273866D01*
X78061904Y-144273866D02*
X78014285Y-144178628D01*
X78014285Y-144178628D02*
X77966666Y-144131009D01*
X77966666Y-144131009D02*
X77871428Y-144083390D01*
X72833333Y-141959580D02*
X72785714Y-142007200D01*
X72785714Y-142007200D02*
X72642857Y-142054819D01*
X72642857Y-142054819D02*
X72547619Y-142054819D01*
X72547619Y-142054819D02*
X72404762Y-142007200D01*
X72404762Y-142007200D02*
X72309524Y-141911961D01*
X72309524Y-141911961D02*
X72261905Y-141816723D01*
X72261905Y-141816723D02*
X72214286Y-141626247D01*
X72214286Y-141626247D02*
X72214286Y-141483390D01*
X72214286Y-141483390D02*
X72261905Y-141292914D01*
X72261905Y-141292914D02*
X72309524Y-141197676D01*
X72309524Y-141197676D02*
X72404762Y-141102438D01*
X72404762Y-141102438D02*
X72547619Y-141054819D01*
X72547619Y-141054819D02*
X72642857Y-141054819D01*
X72642857Y-141054819D02*
X72785714Y-141102438D01*
X72785714Y-141102438D02*
X72833333Y-141150057D01*
X73785714Y-142054819D02*
X73214286Y-142054819D01*
X73500000Y-142054819D02*
X73500000Y-141054819D01*
X73500000Y-141054819D02*
X73404762Y-141197676D01*
X73404762Y-141197676D02*
X73309524Y-141292914D01*
X73309524Y-141292914D02*
X73214286Y-141340533D01*
X52266667Y-91254819D02*
X52266667Y-90254819D01*
X52266667Y-90254819D02*
X52600000Y-90969104D01*
X52600000Y-90969104D02*
X52933333Y-90254819D01*
X52933333Y-90254819D02*
X52933333Y-91254819D01*
X53409524Y-91254819D02*
X53409524Y-90254819D01*
X53409524Y-90731009D02*
X53980952Y-90731009D01*
X53980952Y-91254819D02*
X53980952Y-90254819D01*
X54980952Y-91254819D02*
X54409524Y-91254819D01*
X54695238Y-91254819D02*
X54695238Y-90254819D01*
X54695238Y-90254819D02*
X54600000Y-90397676D01*
X54600000Y-90397676D02*
X54504762Y-90492914D01*
X54504762Y-90492914D02*
X54409524Y-90540533D01*
X89157142Y-127959580D02*
X89109523Y-128007200D01*
X89109523Y-128007200D02*
X88966666Y-128054819D01*
X88966666Y-128054819D02*
X88871428Y-128054819D01*
X88871428Y-128054819D02*
X88728571Y-128007200D01*
X88728571Y-128007200D02*
X88633333Y-127911961D01*
X88633333Y-127911961D02*
X88585714Y-127816723D01*
X88585714Y-127816723D02*
X88538095Y-127626247D01*
X88538095Y-127626247D02*
X88538095Y-127483390D01*
X88538095Y-127483390D02*
X88585714Y-127292914D01*
X88585714Y-127292914D02*
X88633333Y-127197676D01*
X88633333Y-127197676D02*
X88728571Y-127102438D01*
X88728571Y-127102438D02*
X88871428Y-127054819D01*
X88871428Y-127054819D02*
X88966666Y-127054819D01*
X88966666Y-127054819D02*
X89109523Y-127102438D01*
X89109523Y-127102438D02*
X89157142Y-127150057D01*
X89538095Y-127150057D02*
X89585714Y-127102438D01*
X89585714Y-127102438D02*
X89680952Y-127054819D01*
X89680952Y-127054819D02*
X89919047Y-127054819D01*
X89919047Y-127054819D02*
X90014285Y-127102438D01*
X90014285Y-127102438D02*
X90061904Y-127150057D01*
X90061904Y-127150057D02*
X90109523Y-127245295D01*
X90109523Y-127245295D02*
X90109523Y-127340533D01*
X90109523Y-127340533D02*
X90061904Y-127483390D01*
X90061904Y-127483390D02*
X89490476Y-128054819D01*
X89490476Y-128054819D02*
X90109523Y-128054819D01*
X90442857Y-127054819D02*
X91109523Y-127054819D01*
X91109523Y-127054819D02*
X90680952Y-128054819D01*
X59433333Y-107159580D02*
X59385714Y-107207200D01*
X59385714Y-107207200D02*
X59242857Y-107254819D01*
X59242857Y-107254819D02*
X59147619Y-107254819D01*
X59147619Y-107254819D02*
X59004762Y-107207200D01*
X59004762Y-107207200D02*
X58909524Y-107111961D01*
X58909524Y-107111961D02*
X58861905Y-107016723D01*
X58861905Y-107016723D02*
X58814286Y-106826247D01*
X58814286Y-106826247D02*
X58814286Y-106683390D01*
X58814286Y-106683390D02*
X58861905Y-106492914D01*
X58861905Y-106492914D02*
X58909524Y-106397676D01*
X58909524Y-106397676D02*
X59004762Y-106302438D01*
X59004762Y-106302438D02*
X59147619Y-106254819D01*
X59147619Y-106254819D02*
X59242857Y-106254819D01*
X59242857Y-106254819D02*
X59385714Y-106302438D01*
X59385714Y-106302438D02*
X59433333Y-106350057D01*
X60290476Y-106588152D02*
X60290476Y-107254819D01*
X60052381Y-106207200D02*
X59814286Y-106921485D01*
X59814286Y-106921485D02*
X60433333Y-106921485D01*
X57757142Y-133759580D02*
X57709523Y-133807200D01*
X57709523Y-133807200D02*
X57566666Y-133854819D01*
X57566666Y-133854819D02*
X57471428Y-133854819D01*
X57471428Y-133854819D02*
X57328571Y-133807200D01*
X57328571Y-133807200D02*
X57233333Y-133711961D01*
X57233333Y-133711961D02*
X57185714Y-133616723D01*
X57185714Y-133616723D02*
X57138095Y-133426247D01*
X57138095Y-133426247D02*
X57138095Y-133283390D01*
X57138095Y-133283390D02*
X57185714Y-133092914D01*
X57185714Y-133092914D02*
X57233333Y-132997676D01*
X57233333Y-132997676D02*
X57328571Y-132902438D01*
X57328571Y-132902438D02*
X57471428Y-132854819D01*
X57471428Y-132854819D02*
X57566666Y-132854819D01*
X57566666Y-132854819D02*
X57709523Y-132902438D01*
X57709523Y-132902438D02*
X57757142Y-132950057D01*
X58090476Y-132854819D02*
X58709523Y-132854819D01*
X58709523Y-132854819D02*
X58376190Y-133235771D01*
X58376190Y-133235771D02*
X58519047Y-133235771D01*
X58519047Y-133235771D02*
X58614285Y-133283390D01*
X58614285Y-133283390D02*
X58661904Y-133331009D01*
X58661904Y-133331009D02*
X58709523Y-133426247D01*
X58709523Y-133426247D02*
X58709523Y-133664342D01*
X58709523Y-133664342D02*
X58661904Y-133759580D01*
X58661904Y-133759580D02*
X58614285Y-133807200D01*
X58614285Y-133807200D02*
X58519047Y-133854819D01*
X58519047Y-133854819D02*
X58233333Y-133854819D01*
X58233333Y-133854819D02*
X58138095Y-133807200D01*
X58138095Y-133807200D02*
X58090476Y-133759580D01*
X59566666Y-133188152D02*
X59566666Y-133854819D01*
X59328571Y-132807200D02*
X59090476Y-133521485D01*
X59090476Y-133521485D02*
X59709523Y-133521485D01*
X93559580Y-131242857D02*
X93607200Y-131290476D01*
X93607200Y-131290476D02*
X93654819Y-131433333D01*
X93654819Y-131433333D02*
X93654819Y-131528571D01*
X93654819Y-131528571D02*
X93607200Y-131671428D01*
X93607200Y-131671428D02*
X93511961Y-131766666D01*
X93511961Y-131766666D02*
X93416723Y-131814285D01*
X93416723Y-131814285D02*
X93226247Y-131861904D01*
X93226247Y-131861904D02*
X93083390Y-131861904D01*
X93083390Y-131861904D02*
X92892914Y-131814285D01*
X92892914Y-131814285D02*
X92797676Y-131766666D01*
X92797676Y-131766666D02*
X92702438Y-131671428D01*
X92702438Y-131671428D02*
X92654819Y-131528571D01*
X92654819Y-131528571D02*
X92654819Y-131433333D01*
X92654819Y-131433333D02*
X92702438Y-131290476D01*
X92702438Y-131290476D02*
X92750057Y-131242857D01*
X92750057Y-130861904D02*
X92702438Y-130814285D01*
X92702438Y-130814285D02*
X92654819Y-130719047D01*
X92654819Y-130719047D02*
X92654819Y-130480952D01*
X92654819Y-130480952D02*
X92702438Y-130385714D01*
X92702438Y-130385714D02*
X92750057Y-130338095D01*
X92750057Y-130338095D02*
X92845295Y-130290476D01*
X92845295Y-130290476D02*
X92940533Y-130290476D01*
X92940533Y-130290476D02*
X93083390Y-130338095D01*
X93083390Y-130338095D02*
X93654819Y-130909523D01*
X93654819Y-130909523D02*
X93654819Y-130290476D01*
X92654819Y-129433333D02*
X92654819Y-129623809D01*
X92654819Y-129623809D02*
X92702438Y-129719047D01*
X92702438Y-129719047D02*
X92750057Y-129766666D01*
X92750057Y-129766666D02*
X92892914Y-129861904D01*
X92892914Y-129861904D02*
X93083390Y-129909523D01*
X93083390Y-129909523D02*
X93464342Y-129909523D01*
X93464342Y-129909523D02*
X93559580Y-129861904D01*
X93559580Y-129861904D02*
X93607200Y-129814285D01*
X93607200Y-129814285D02*
X93654819Y-129719047D01*
X93654819Y-129719047D02*
X93654819Y-129528571D01*
X93654819Y-129528571D02*
X93607200Y-129433333D01*
X93607200Y-129433333D02*
X93559580Y-129385714D01*
X93559580Y-129385714D02*
X93464342Y-129338095D01*
X93464342Y-129338095D02*
X93226247Y-129338095D01*
X93226247Y-129338095D02*
X93131009Y-129385714D01*
X93131009Y-129385714D02*
X93083390Y-129433333D01*
X93083390Y-129433333D02*
X93035771Y-129528571D01*
X93035771Y-129528571D02*
X93035771Y-129719047D01*
X93035771Y-129719047D02*
X93083390Y-129814285D01*
X93083390Y-129814285D02*
X93131009Y-129861904D01*
X93131009Y-129861904D02*
X93226247Y-129909523D01*
X85957142Y-137359580D02*
X85909523Y-137407200D01*
X85909523Y-137407200D02*
X85766666Y-137454819D01*
X85766666Y-137454819D02*
X85671428Y-137454819D01*
X85671428Y-137454819D02*
X85528571Y-137407200D01*
X85528571Y-137407200D02*
X85433333Y-137311961D01*
X85433333Y-137311961D02*
X85385714Y-137216723D01*
X85385714Y-137216723D02*
X85338095Y-137026247D01*
X85338095Y-137026247D02*
X85338095Y-136883390D01*
X85338095Y-136883390D02*
X85385714Y-136692914D01*
X85385714Y-136692914D02*
X85433333Y-136597676D01*
X85433333Y-136597676D02*
X85528571Y-136502438D01*
X85528571Y-136502438D02*
X85671428Y-136454819D01*
X85671428Y-136454819D02*
X85766666Y-136454819D01*
X85766666Y-136454819D02*
X85909523Y-136502438D01*
X85909523Y-136502438D02*
X85957142Y-136550057D01*
X86909523Y-137454819D02*
X86338095Y-137454819D01*
X86623809Y-137454819D02*
X86623809Y-136454819D01*
X86623809Y-136454819D02*
X86528571Y-136597676D01*
X86528571Y-136597676D02*
X86433333Y-136692914D01*
X86433333Y-136692914D02*
X86338095Y-136740533D01*
X87385714Y-137454819D02*
X87576190Y-137454819D01*
X87576190Y-137454819D02*
X87671428Y-137407200D01*
X87671428Y-137407200D02*
X87719047Y-137359580D01*
X87719047Y-137359580D02*
X87814285Y-137216723D01*
X87814285Y-137216723D02*
X87861904Y-137026247D01*
X87861904Y-137026247D02*
X87861904Y-136645295D01*
X87861904Y-136645295D02*
X87814285Y-136550057D01*
X87814285Y-136550057D02*
X87766666Y-136502438D01*
X87766666Y-136502438D02*
X87671428Y-136454819D01*
X87671428Y-136454819D02*
X87480952Y-136454819D01*
X87480952Y-136454819D02*
X87385714Y-136502438D01*
X87385714Y-136502438D02*
X87338095Y-136550057D01*
X87338095Y-136550057D02*
X87290476Y-136645295D01*
X87290476Y-136645295D02*
X87290476Y-136883390D01*
X87290476Y-136883390D02*
X87338095Y-136978628D01*
X87338095Y-136978628D02*
X87385714Y-137026247D01*
X87385714Y-137026247D02*
X87480952Y-137073866D01*
X87480952Y-137073866D02*
X87671428Y-137073866D01*
X87671428Y-137073866D02*
X87766666Y-137026247D01*
X87766666Y-137026247D02*
X87814285Y-136978628D01*
X87814285Y-136978628D02*
X87861904Y-136883390D01*
X62033333Y-107359580D02*
X61985714Y-107407200D01*
X61985714Y-107407200D02*
X61842857Y-107454819D01*
X61842857Y-107454819D02*
X61747619Y-107454819D01*
X61747619Y-107454819D02*
X61604762Y-107407200D01*
X61604762Y-107407200D02*
X61509524Y-107311961D01*
X61509524Y-107311961D02*
X61461905Y-107216723D01*
X61461905Y-107216723D02*
X61414286Y-107026247D01*
X61414286Y-107026247D02*
X61414286Y-106883390D01*
X61414286Y-106883390D02*
X61461905Y-106692914D01*
X61461905Y-106692914D02*
X61509524Y-106597676D01*
X61509524Y-106597676D02*
X61604762Y-106502438D01*
X61604762Y-106502438D02*
X61747619Y-106454819D01*
X61747619Y-106454819D02*
X61842857Y-106454819D01*
X61842857Y-106454819D02*
X61985714Y-106502438D01*
X61985714Y-106502438D02*
X62033333Y-106550057D01*
X62366667Y-106454819D02*
X62985714Y-106454819D01*
X62985714Y-106454819D02*
X62652381Y-106835771D01*
X62652381Y-106835771D02*
X62795238Y-106835771D01*
X62795238Y-106835771D02*
X62890476Y-106883390D01*
X62890476Y-106883390D02*
X62938095Y-106931009D01*
X62938095Y-106931009D02*
X62985714Y-107026247D01*
X62985714Y-107026247D02*
X62985714Y-107264342D01*
X62985714Y-107264342D02*
X62938095Y-107359580D01*
X62938095Y-107359580D02*
X62890476Y-107407200D01*
X62890476Y-107407200D02*
X62795238Y-107454819D01*
X62795238Y-107454819D02*
X62509524Y-107454819D01*
X62509524Y-107454819D02*
X62414286Y-107407200D01*
X62414286Y-107407200D02*
X62366667Y-107359580D01*
X63654819Y-125366666D02*
X63178628Y-125699999D01*
X63654819Y-125938094D02*
X62654819Y-125938094D01*
X62654819Y-125938094D02*
X62654819Y-125557142D01*
X62654819Y-125557142D02*
X62702438Y-125461904D01*
X62702438Y-125461904D02*
X62750057Y-125414285D01*
X62750057Y-125414285D02*
X62845295Y-125366666D01*
X62845295Y-125366666D02*
X62988152Y-125366666D01*
X62988152Y-125366666D02*
X63083390Y-125414285D01*
X63083390Y-125414285D02*
X63131009Y-125461904D01*
X63131009Y-125461904D02*
X63178628Y-125557142D01*
X63178628Y-125557142D02*
X63178628Y-125938094D01*
X62654819Y-125033332D02*
X62654819Y-124414285D01*
X62654819Y-124414285D02*
X63035771Y-124747618D01*
X63035771Y-124747618D02*
X63035771Y-124604761D01*
X63035771Y-124604761D02*
X63083390Y-124509523D01*
X63083390Y-124509523D02*
X63131009Y-124461904D01*
X63131009Y-124461904D02*
X63226247Y-124414285D01*
X63226247Y-124414285D02*
X63464342Y-124414285D01*
X63464342Y-124414285D02*
X63559580Y-124461904D01*
X63559580Y-124461904D02*
X63607200Y-124509523D01*
X63607200Y-124509523D02*
X63654819Y-124604761D01*
X63654819Y-124604761D02*
X63654819Y-124890475D01*
X63654819Y-124890475D02*
X63607200Y-124985713D01*
X63607200Y-124985713D02*
X63559580Y-125033332D01*
X57807142Y-124559580D02*
X57759523Y-124607200D01*
X57759523Y-124607200D02*
X57616666Y-124654819D01*
X57616666Y-124654819D02*
X57521428Y-124654819D01*
X57521428Y-124654819D02*
X57378571Y-124607200D01*
X57378571Y-124607200D02*
X57283333Y-124511961D01*
X57283333Y-124511961D02*
X57235714Y-124416723D01*
X57235714Y-124416723D02*
X57188095Y-124226247D01*
X57188095Y-124226247D02*
X57188095Y-124083390D01*
X57188095Y-124083390D02*
X57235714Y-123892914D01*
X57235714Y-123892914D02*
X57283333Y-123797676D01*
X57283333Y-123797676D02*
X57378571Y-123702438D01*
X57378571Y-123702438D02*
X57521428Y-123654819D01*
X57521428Y-123654819D02*
X57616666Y-123654819D01*
X57616666Y-123654819D02*
X57759523Y-123702438D01*
X57759523Y-123702438D02*
X57807142Y-123750057D01*
X58759523Y-124654819D02*
X58188095Y-124654819D01*
X58473809Y-124654819D02*
X58473809Y-123654819D01*
X58473809Y-123654819D02*
X58378571Y-123797676D01*
X58378571Y-123797676D02*
X58283333Y-123892914D01*
X58283333Y-123892914D02*
X58188095Y-123940533D01*
X59616666Y-123988152D02*
X59616666Y-124654819D01*
X59378571Y-123607200D02*
X59140476Y-124321485D01*
X59140476Y-124321485D02*
X59759523Y-124321485D01*
X53938095Y-130407200D02*
X54080952Y-130454819D01*
X54080952Y-130454819D02*
X54319047Y-130454819D01*
X54319047Y-130454819D02*
X54414285Y-130407200D01*
X54414285Y-130407200D02*
X54461904Y-130359580D01*
X54461904Y-130359580D02*
X54509523Y-130264342D01*
X54509523Y-130264342D02*
X54509523Y-130169104D01*
X54509523Y-130169104D02*
X54461904Y-130073866D01*
X54461904Y-130073866D02*
X54414285Y-130026247D01*
X54414285Y-130026247D02*
X54319047Y-129978628D01*
X54319047Y-129978628D02*
X54128571Y-129931009D01*
X54128571Y-129931009D02*
X54033333Y-129883390D01*
X54033333Y-129883390D02*
X53985714Y-129835771D01*
X53985714Y-129835771D02*
X53938095Y-129740533D01*
X53938095Y-129740533D02*
X53938095Y-129645295D01*
X53938095Y-129645295D02*
X53985714Y-129550057D01*
X53985714Y-129550057D02*
X54033333Y-129502438D01*
X54033333Y-129502438D02*
X54128571Y-129454819D01*
X54128571Y-129454819D02*
X54366666Y-129454819D01*
X54366666Y-129454819D02*
X54509523Y-129502438D01*
X55271428Y-129931009D02*
X55414285Y-129978628D01*
X55414285Y-129978628D02*
X55461904Y-130026247D01*
X55461904Y-130026247D02*
X55509523Y-130121485D01*
X55509523Y-130121485D02*
X55509523Y-130264342D01*
X55509523Y-130264342D02*
X55461904Y-130359580D01*
X55461904Y-130359580D02*
X55414285Y-130407200D01*
X55414285Y-130407200D02*
X55319047Y-130454819D01*
X55319047Y-130454819D02*
X54938095Y-130454819D01*
X54938095Y-130454819D02*
X54938095Y-129454819D01*
X54938095Y-129454819D02*
X55271428Y-129454819D01*
X55271428Y-129454819D02*
X55366666Y-129502438D01*
X55366666Y-129502438D02*
X55414285Y-129550057D01*
X55414285Y-129550057D02*
X55461904Y-129645295D01*
X55461904Y-129645295D02*
X55461904Y-129740533D01*
X55461904Y-129740533D02*
X55414285Y-129835771D01*
X55414285Y-129835771D02*
X55366666Y-129883390D01*
X55366666Y-129883390D02*
X55271428Y-129931009D01*
X55271428Y-129931009D02*
X54938095Y-129931009D01*
X56461904Y-130454819D02*
X55890476Y-130454819D01*
X56176190Y-130454819D02*
X56176190Y-129454819D01*
X56176190Y-129454819D02*
X56080952Y-129597676D01*
X56080952Y-129597676D02*
X55985714Y-129692914D01*
X55985714Y-129692914D02*
X55890476Y-129740533D01*
X95359580Y-131242857D02*
X95407200Y-131290476D01*
X95407200Y-131290476D02*
X95454819Y-131433333D01*
X95454819Y-131433333D02*
X95454819Y-131528571D01*
X95454819Y-131528571D02*
X95407200Y-131671428D01*
X95407200Y-131671428D02*
X95311961Y-131766666D01*
X95311961Y-131766666D02*
X95216723Y-131814285D01*
X95216723Y-131814285D02*
X95026247Y-131861904D01*
X95026247Y-131861904D02*
X94883390Y-131861904D01*
X94883390Y-131861904D02*
X94692914Y-131814285D01*
X94692914Y-131814285D02*
X94597676Y-131766666D01*
X94597676Y-131766666D02*
X94502438Y-131671428D01*
X94502438Y-131671428D02*
X94454819Y-131528571D01*
X94454819Y-131528571D02*
X94454819Y-131433333D01*
X94454819Y-131433333D02*
X94502438Y-131290476D01*
X94502438Y-131290476D02*
X94550057Y-131242857D01*
X94550057Y-130861904D02*
X94502438Y-130814285D01*
X94502438Y-130814285D02*
X94454819Y-130719047D01*
X94454819Y-130719047D02*
X94454819Y-130480952D01*
X94454819Y-130480952D02*
X94502438Y-130385714D01*
X94502438Y-130385714D02*
X94550057Y-130338095D01*
X94550057Y-130338095D02*
X94645295Y-130290476D01*
X94645295Y-130290476D02*
X94740533Y-130290476D01*
X94740533Y-130290476D02*
X94883390Y-130338095D01*
X94883390Y-130338095D02*
X95454819Y-130909523D01*
X95454819Y-130909523D02*
X95454819Y-130290476D01*
X94454819Y-129385714D02*
X94454819Y-129861904D01*
X94454819Y-129861904D02*
X94931009Y-129909523D01*
X94931009Y-129909523D02*
X94883390Y-129861904D01*
X94883390Y-129861904D02*
X94835771Y-129766666D01*
X94835771Y-129766666D02*
X94835771Y-129528571D01*
X94835771Y-129528571D02*
X94883390Y-129433333D01*
X94883390Y-129433333D02*
X94931009Y-129385714D01*
X94931009Y-129385714D02*
X95026247Y-129338095D01*
X95026247Y-129338095D02*
X95264342Y-129338095D01*
X95264342Y-129338095D02*
X95359580Y-129385714D01*
X95359580Y-129385714D02*
X95407200Y-129433333D01*
X95407200Y-129433333D02*
X95454819Y-129528571D01*
X95454819Y-129528571D02*
X95454819Y-129766666D01*
X95454819Y-129766666D02*
X95407200Y-129861904D01*
X95407200Y-129861904D02*
X95359580Y-129909523D01*
X65159580Y-119442857D02*
X65207200Y-119490476D01*
X65207200Y-119490476D02*
X65254819Y-119633333D01*
X65254819Y-119633333D02*
X65254819Y-119728571D01*
X65254819Y-119728571D02*
X65207200Y-119871428D01*
X65207200Y-119871428D02*
X65111961Y-119966666D01*
X65111961Y-119966666D02*
X65016723Y-120014285D01*
X65016723Y-120014285D02*
X64826247Y-120061904D01*
X64826247Y-120061904D02*
X64683390Y-120061904D01*
X64683390Y-120061904D02*
X64492914Y-120014285D01*
X64492914Y-120014285D02*
X64397676Y-119966666D01*
X64397676Y-119966666D02*
X64302438Y-119871428D01*
X64302438Y-119871428D02*
X64254819Y-119728571D01*
X64254819Y-119728571D02*
X64254819Y-119633333D01*
X64254819Y-119633333D02*
X64302438Y-119490476D01*
X64302438Y-119490476D02*
X64350057Y-119442857D01*
X64588152Y-118585714D02*
X65254819Y-118585714D01*
X64207200Y-118823809D02*
X64921485Y-119061904D01*
X64921485Y-119061904D02*
X64921485Y-118442857D01*
X64254819Y-117871428D02*
X64254819Y-117776190D01*
X64254819Y-117776190D02*
X64302438Y-117680952D01*
X64302438Y-117680952D02*
X64350057Y-117633333D01*
X64350057Y-117633333D02*
X64445295Y-117585714D01*
X64445295Y-117585714D02*
X64635771Y-117538095D01*
X64635771Y-117538095D02*
X64873866Y-117538095D01*
X64873866Y-117538095D02*
X65064342Y-117585714D01*
X65064342Y-117585714D02*
X65159580Y-117633333D01*
X65159580Y-117633333D02*
X65207200Y-117680952D01*
X65207200Y-117680952D02*
X65254819Y-117776190D01*
X65254819Y-117776190D02*
X65254819Y-117871428D01*
X65254819Y-117871428D02*
X65207200Y-117966666D01*
X65207200Y-117966666D02*
X65159580Y-118014285D01*
X65159580Y-118014285D02*
X65064342Y-118061904D01*
X65064342Y-118061904D02*
X64873866Y-118109523D01*
X64873866Y-118109523D02*
X64635771Y-118109523D01*
X64635771Y-118109523D02*
X64445295Y-118061904D01*
X64445295Y-118061904D02*
X64350057Y-118014285D01*
X64350057Y-118014285D02*
X64302438Y-117966666D01*
X64302438Y-117966666D02*
X64254819Y-117871428D01*
X65757142Y-140359580D02*
X65709523Y-140407200D01*
X65709523Y-140407200D02*
X65566666Y-140454819D01*
X65566666Y-140454819D02*
X65471428Y-140454819D01*
X65471428Y-140454819D02*
X65328571Y-140407200D01*
X65328571Y-140407200D02*
X65233333Y-140311961D01*
X65233333Y-140311961D02*
X65185714Y-140216723D01*
X65185714Y-140216723D02*
X65138095Y-140026247D01*
X65138095Y-140026247D02*
X65138095Y-139883390D01*
X65138095Y-139883390D02*
X65185714Y-139692914D01*
X65185714Y-139692914D02*
X65233333Y-139597676D01*
X65233333Y-139597676D02*
X65328571Y-139502438D01*
X65328571Y-139502438D02*
X65471428Y-139454819D01*
X65471428Y-139454819D02*
X65566666Y-139454819D01*
X65566666Y-139454819D02*
X65709523Y-139502438D01*
X65709523Y-139502438D02*
X65757142Y-139550057D01*
X66709523Y-140454819D02*
X66138095Y-140454819D01*
X66423809Y-140454819D02*
X66423809Y-139454819D01*
X66423809Y-139454819D02*
X66328571Y-139597676D01*
X66328571Y-139597676D02*
X66233333Y-139692914D01*
X66233333Y-139692914D02*
X66138095Y-139740533D01*
X67042857Y-139454819D02*
X67661904Y-139454819D01*
X67661904Y-139454819D02*
X67328571Y-139835771D01*
X67328571Y-139835771D02*
X67471428Y-139835771D01*
X67471428Y-139835771D02*
X67566666Y-139883390D01*
X67566666Y-139883390D02*
X67614285Y-139931009D01*
X67614285Y-139931009D02*
X67661904Y-140026247D01*
X67661904Y-140026247D02*
X67661904Y-140264342D01*
X67661904Y-140264342D02*
X67614285Y-140359580D01*
X67614285Y-140359580D02*
X67566666Y-140407200D01*
X67566666Y-140407200D02*
X67471428Y-140454819D01*
X67471428Y-140454819D02*
X67185714Y-140454819D01*
X67185714Y-140454819D02*
X67090476Y-140407200D01*
X67090476Y-140407200D02*
X67042857Y-140359580D01*
X52866667Y-156054819D02*
X52866667Y-155054819D01*
X52866667Y-155054819D02*
X53200000Y-155769104D01*
X53200000Y-155769104D02*
X53533333Y-155054819D01*
X53533333Y-155054819D02*
X53533333Y-156054819D01*
X54009524Y-156054819D02*
X54009524Y-155054819D01*
X54009524Y-155531009D02*
X54580952Y-155531009D01*
X54580952Y-156054819D02*
X54580952Y-155054819D01*
X54961905Y-155054819D02*
X55580952Y-155054819D01*
X55580952Y-155054819D02*
X55247619Y-155435771D01*
X55247619Y-155435771D02*
X55390476Y-155435771D01*
X55390476Y-155435771D02*
X55485714Y-155483390D01*
X55485714Y-155483390D02*
X55533333Y-155531009D01*
X55533333Y-155531009D02*
X55580952Y-155626247D01*
X55580952Y-155626247D02*
X55580952Y-155864342D01*
X55580952Y-155864342D02*
X55533333Y-155959580D01*
X55533333Y-155959580D02*
X55485714Y-156007200D01*
X55485714Y-156007200D02*
X55390476Y-156054819D01*
X55390476Y-156054819D02*
X55104762Y-156054819D01*
X55104762Y-156054819D02*
X55009524Y-156007200D01*
X55009524Y-156007200D02*
X54961905Y-155959580D01*
X78361905Y-111854819D02*
X78361905Y-110854819D01*
X78361905Y-110854819D02*
X78600000Y-110854819D01*
X78600000Y-110854819D02*
X78742857Y-110902438D01*
X78742857Y-110902438D02*
X78838095Y-110997676D01*
X78838095Y-110997676D02*
X78885714Y-111092914D01*
X78885714Y-111092914D02*
X78933333Y-111283390D01*
X78933333Y-111283390D02*
X78933333Y-111426247D01*
X78933333Y-111426247D02*
X78885714Y-111616723D01*
X78885714Y-111616723D02*
X78838095Y-111711961D01*
X78838095Y-111711961D02*
X78742857Y-111807200D01*
X78742857Y-111807200D02*
X78600000Y-111854819D01*
X78600000Y-111854819D02*
X78361905Y-111854819D01*
X79361905Y-111854819D02*
X79361905Y-110854819D01*
X79361905Y-110854819D02*
X79600000Y-110854819D01*
X79600000Y-110854819D02*
X79742857Y-110902438D01*
X79742857Y-110902438D02*
X79838095Y-110997676D01*
X79838095Y-110997676D02*
X79885714Y-111092914D01*
X79885714Y-111092914D02*
X79933333Y-111283390D01*
X79933333Y-111283390D02*
X79933333Y-111426247D01*
X79933333Y-111426247D02*
X79885714Y-111616723D01*
X79885714Y-111616723D02*
X79838095Y-111711961D01*
X79838095Y-111711961D02*
X79742857Y-111807200D01*
X79742857Y-111807200D02*
X79600000Y-111854819D01*
X79600000Y-111854819D02*
X79361905Y-111854819D01*
X80885714Y-111854819D02*
X80314286Y-111854819D01*
X80600000Y-111854819D02*
X80600000Y-110854819D01*
X80600000Y-110854819D02*
X80504762Y-110997676D01*
X80504762Y-110997676D02*
X80409524Y-111092914D01*
X80409524Y-111092914D02*
X80314286Y-111140533D01*
X64033333Y-109559580D02*
X63985714Y-109607200D01*
X63985714Y-109607200D02*
X63842857Y-109654819D01*
X63842857Y-109654819D02*
X63747619Y-109654819D01*
X63747619Y-109654819D02*
X63604762Y-109607200D01*
X63604762Y-109607200D02*
X63509524Y-109511961D01*
X63509524Y-109511961D02*
X63461905Y-109416723D01*
X63461905Y-109416723D02*
X63414286Y-109226247D01*
X63414286Y-109226247D02*
X63414286Y-109083390D01*
X63414286Y-109083390D02*
X63461905Y-108892914D01*
X63461905Y-108892914D02*
X63509524Y-108797676D01*
X63509524Y-108797676D02*
X63604762Y-108702438D01*
X63604762Y-108702438D02*
X63747619Y-108654819D01*
X63747619Y-108654819D02*
X63842857Y-108654819D01*
X63842857Y-108654819D02*
X63985714Y-108702438D01*
X63985714Y-108702438D02*
X64033333Y-108750057D01*
X64938095Y-108654819D02*
X64461905Y-108654819D01*
X64461905Y-108654819D02*
X64414286Y-109131009D01*
X64414286Y-109131009D02*
X64461905Y-109083390D01*
X64461905Y-109083390D02*
X64557143Y-109035771D01*
X64557143Y-109035771D02*
X64795238Y-109035771D01*
X64795238Y-109035771D02*
X64890476Y-109083390D01*
X64890476Y-109083390D02*
X64938095Y-109131009D01*
X64938095Y-109131009D02*
X64985714Y-109226247D01*
X64985714Y-109226247D02*
X64985714Y-109464342D01*
X64985714Y-109464342D02*
X64938095Y-109559580D01*
X64938095Y-109559580D02*
X64890476Y-109607200D01*
X64890476Y-109607200D02*
X64795238Y-109654819D01*
X64795238Y-109654819D02*
X64557143Y-109654819D01*
X64557143Y-109654819D02*
X64461905Y-109607200D01*
X64461905Y-109607200D02*
X64414286Y-109559580D01*
X56759580Y-105442857D02*
X56807200Y-105490476D01*
X56807200Y-105490476D02*
X56854819Y-105633333D01*
X56854819Y-105633333D02*
X56854819Y-105728571D01*
X56854819Y-105728571D02*
X56807200Y-105871428D01*
X56807200Y-105871428D02*
X56711961Y-105966666D01*
X56711961Y-105966666D02*
X56616723Y-106014285D01*
X56616723Y-106014285D02*
X56426247Y-106061904D01*
X56426247Y-106061904D02*
X56283390Y-106061904D01*
X56283390Y-106061904D02*
X56092914Y-106014285D01*
X56092914Y-106014285D02*
X55997676Y-105966666D01*
X55997676Y-105966666D02*
X55902438Y-105871428D01*
X55902438Y-105871428D02*
X55854819Y-105728571D01*
X55854819Y-105728571D02*
X55854819Y-105633333D01*
X55854819Y-105633333D02*
X55902438Y-105490476D01*
X55902438Y-105490476D02*
X55950057Y-105442857D01*
X56854819Y-104490476D02*
X56854819Y-105061904D01*
X56854819Y-104776190D02*
X55854819Y-104776190D01*
X55854819Y-104776190D02*
X55997676Y-104871428D01*
X55997676Y-104871428D02*
X56092914Y-104966666D01*
X56092914Y-104966666D02*
X56140533Y-105061904D01*
X55950057Y-104109523D02*
X55902438Y-104061904D01*
X55902438Y-104061904D02*
X55854819Y-103966666D01*
X55854819Y-103966666D02*
X55854819Y-103728571D01*
X55854819Y-103728571D02*
X55902438Y-103633333D01*
X55902438Y-103633333D02*
X55950057Y-103585714D01*
X55950057Y-103585714D02*
X56045295Y-103538095D01*
X56045295Y-103538095D02*
X56140533Y-103538095D01*
X56140533Y-103538095D02*
X56283390Y-103585714D01*
X56283390Y-103585714D02*
X56854819Y-104157142D01*
X56854819Y-104157142D02*
X56854819Y-103538095D01*
X65157142Y-122159580D02*
X65109523Y-122207200D01*
X65109523Y-122207200D02*
X64966666Y-122254819D01*
X64966666Y-122254819D02*
X64871428Y-122254819D01*
X64871428Y-122254819D02*
X64728571Y-122207200D01*
X64728571Y-122207200D02*
X64633333Y-122111961D01*
X64633333Y-122111961D02*
X64585714Y-122016723D01*
X64585714Y-122016723D02*
X64538095Y-121826247D01*
X64538095Y-121826247D02*
X64538095Y-121683390D01*
X64538095Y-121683390D02*
X64585714Y-121492914D01*
X64585714Y-121492914D02*
X64633333Y-121397676D01*
X64633333Y-121397676D02*
X64728571Y-121302438D01*
X64728571Y-121302438D02*
X64871428Y-121254819D01*
X64871428Y-121254819D02*
X64966666Y-121254819D01*
X64966666Y-121254819D02*
X65109523Y-121302438D01*
X65109523Y-121302438D02*
X65157142Y-121350057D01*
X66109523Y-122254819D02*
X65538095Y-122254819D01*
X65823809Y-122254819D02*
X65823809Y-121254819D01*
X65823809Y-121254819D02*
X65728571Y-121397676D01*
X65728571Y-121397676D02*
X65633333Y-121492914D01*
X65633333Y-121492914D02*
X65538095Y-121540533D01*
X66728571Y-121254819D02*
X66823809Y-121254819D01*
X66823809Y-121254819D02*
X66919047Y-121302438D01*
X66919047Y-121302438D02*
X66966666Y-121350057D01*
X66966666Y-121350057D02*
X67014285Y-121445295D01*
X67014285Y-121445295D02*
X67061904Y-121635771D01*
X67061904Y-121635771D02*
X67061904Y-121873866D01*
X67061904Y-121873866D02*
X67014285Y-122064342D01*
X67014285Y-122064342D02*
X66966666Y-122159580D01*
X66966666Y-122159580D02*
X66919047Y-122207200D01*
X66919047Y-122207200D02*
X66823809Y-122254819D01*
X66823809Y-122254819D02*
X66728571Y-122254819D01*
X66728571Y-122254819D02*
X66633333Y-122207200D01*
X66633333Y-122207200D02*
X66585714Y-122159580D01*
X66585714Y-122159580D02*
X66538095Y-122064342D01*
X66538095Y-122064342D02*
X66490476Y-121873866D01*
X66490476Y-121873866D02*
X66490476Y-121635771D01*
X66490476Y-121635771D02*
X66538095Y-121445295D01*
X66538095Y-121445295D02*
X66585714Y-121350057D01*
X66585714Y-121350057D02*
X66633333Y-121302438D01*
X66633333Y-121302438D02*
X66728571Y-121254819D01*
X55561905Y-152654819D02*
X55561905Y-151654819D01*
X55561905Y-151654819D02*
X55800000Y-151654819D01*
X55800000Y-151654819D02*
X55942857Y-151702438D01*
X55942857Y-151702438D02*
X56038095Y-151797676D01*
X56038095Y-151797676D02*
X56085714Y-151892914D01*
X56085714Y-151892914D02*
X56133333Y-152083390D01*
X56133333Y-152083390D02*
X56133333Y-152226247D01*
X56133333Y-152226247D02*
X56085714Y-152416723D01*
X56085714Y-152416723D02*
X56038095Y-152511961D01*
X56038095Y-152511961D02*
X55942857Y-152607200D01*
X55942857Y-152607200D02*
X55800000Y-152654819D01*
X55800000Y-152654819D02*
X55561905Y-152654819D01*
X56561905Y-152654819D02*
X56561905Y-151654819D01*
X56561905Y-151654819D02*
X56800000Y-151654819D01*
X56800000Y-151654819D02*
X56942857Y-151702438D01*
X56942857Y-151702438D02*
X57038095Y-151797676D01*
X57038095Y-151797676D02*
X57085714Y-151892914D01*
X57085714Y-151892914D02*
X57133333Y-152083390D01*
X57133333Y-152083390D02*
X57133333Y-152226247D01*
X57133333Y-152226247D02*
X57085714Y-152416723D01*
X57085714Y-152416723D02*
X57038095Y-152511961D01*
X57038095Y-152511961D02*
X56942857Y-152607200D01*
X56942857Y-152607200D02*
X56800000Y-152654819D01*
X56800000Y-152654819D02*
X56561905Y-152654819D01*
X58038095Y-151654819D02*
X57561905Y-151654819D01*
X57561905Y-151654819D02*
X57514286Y-152131009D01*
X57514286Y-152131009D02*
X57561905Y-152083390D01*
X57561905Y-152083390D02*
X57657143Y-152035771D01*
X57657143Y-152035771D02*
X57895238Y-152035771D01*
X57895238Y-152035771D02*
X57990476Y-152083390D01*
X57990476Y-152083390D02*
X58038095Y-152131009D01*
X58038095Y-152131009D02*
X58085714Y-152226247D01*
X58085714Y-152226247D02*
X58085714Y-152464342D01*
X58085714Y-152464342D02*
X58038095Y-152559580D01*
X58038095Y-152559580D02*
X57990476Y-152607200D01*
X57990476Y-152607200D02*
X57895238Y-152654819D01*
X57895238Y-152654819D02*
X57657143Y-152654819D01*
X57657143Y-152654819D02*
X57561905Y-152607200D01*
X57561905Y-152607200D02*
X57514286Y-152559580D01*
X73033333Y-134454819D02*
X72700000Y-133978628D01*
X72461905Y-134454819D02*
X72461905Y-133454819D01*
X72461905Y-133454819D02*
X72842857Y-133454819D01*
X72842857Y-133454819D02*
X72938095Y-133502438D01*
X72938095Y-133502438D02*
X72985714Y-133550057D01*
X72985714Y-133550057D02*
X73033333Y-133645295D01*
X73033333Y-133645295D02*
X73033333Y-133788152D01*
X73033333Y-133788152D02*
X72985714Y-133883390D01*
X72985714Y-133883390D02*
X72938095Y-133931009D01*
X72938095Y-133931009D02*
X72842857Y-133978628D01*
X72842857Y-133978628D02*
X72461905Y-133978628D01*
X73414286Y-133550057D02*
X73461905Y-133502438D01*
X73461905Y-133502438D02*
X73557143Y-133454819D01*
X73557143Y-133454819D02*
X73795238Y-133454819D01*
X73795238Y-133454819D02*
X73890476Y-133502438D01*
X73890476Y-133502438D02*
X73938095Y-133550057D01*
X73938095Y-133550057D02*
X73985714Y-133645295D01*
X73985714Y-133645295D02*
X73985714Y-133740533D01*
X73985714Y-133740533D02*
X73938095Y-133883390D01*
X73938095Y-133883390D02*
X73366667Y-134454819D01*
X73366667Y-134454819D02*
X73985714Y-134454819D01*
X45790476Y-144654819D02*
X46457142Y-145654819D01*
X46457142Y-144654819D02*
X45790476Y-145654819D01*
X47266666Y-144654819D02*
X47076190Y-144654819D01*
X47076190Y-144654819D02*
X46980952Y-144702438D01*
X46980952Y-144702438D02*
X46933333Y-144750057D01*
X46933333Y-144750057D02*
X46838095Y-144892914D01*
X46838095Y-144892914D02*
X46790476Y-145083390D01*
X46790476Y-145083390D02*
X46790476Y-145464342D01*
X46790476Y-145464342D02*
X46838095Y-145559580D01*
X46838095Y-145559580D02*
X46885714Y-145607200D01*
X46885714Y-145607200D02*
X46980952Y-145654819D01*
X46980952Y-145654819D02*
X47171428Y-145654819D01*
X47171428Y-145654819D02*
X47266666Y-145607200D01*
X47266666Y-145607200D02*
X47314285Y-145559580D01*
X47314285Y-145559580D02*
X47361904Y-145464342D01*
X47361904Y-145464342D02*
X47361904Y-145226247D01*
X47361904Y-145226247D02*
X47314285Y-145131009D01*
X47314285Y-145131009D02*
X47266666Y-145083390D01*
X47266666Y-145083390D02*
X47171428Y-145035771D01*
X47171428Y-145035771D02*
X46980952Y-145035771D01*
X46980952Y-145035771D02*
X46885714Y-145083390D01*
X46885714Y-145083390D02*
X46838095Y-145131009D01*
X46838095Y-145131009D02*
X46790476Y-145226247D01*
X56558333Y-97880819D02*
X56558333Y-96880819D01*
X56558333Y-96880819D02*
X56796428Y-96880819D01*
X56796428Y-96880819D02*
X56939285Y-96928438D01*
X56939285Y-96928438D02*
X57034523Y-97023676D01*
X57034523Y-97023676D02*
X57082142Y-97118914D01*
X57082142Y-97118914D02*
X57129761Y-97309390D01*
X57129761Y-97309390D02*
X57129761Y-97452247D01*
X57129761Y-97452247D02*
X57082142Y-97642723D01*
X57082142Y-97642723D02*
X57034523Y-97737961D01*
X57034523Y-97737961D02*
X56939285Y-97833200D01*
X56939285Y-97833200D02*
X56796428Y-97880819D01*
X56796428Y-97880819D02*
X56558333Y-97880819D01*
X57510714Y-97595104D02*
X57986904Y-97595104D01*
X57415476Y-97880819D02*
X57748809Y-96880819D01*
X57748809Y-96880819D02*
X58082142Y-97880819D01*
X58939285Y-97880819D02*
X58367857Y-97880819D01*
X58653571Y-97880819D02*
X58653571Y-96880819D01*
X58653571Y-96880819D02*
X58558333Y-97023676D01*
X58558333Y-97023676D02*
X58463095Y-97118914D01*
X58463095Y-97118914D02*
X58367857Y-97166533D01*
X53757142Y-110559580D02*
X53709523Y-110607200D01*
X53709523Y-110607200D02*
X53566666Y-110654819D01*
X53566666Y-110654819D02*
X53471428Y-110654819D01*
X53471428Y-110654819D02*
X53328571Y-110607200D01*
X53328571Y-110607200D02*
X53233333Y-110511961D01*
X53233333Y-110511961D02*
X53185714Y-110416723D01*
X53185714Y-110416723D02*
X53138095Y-110226247D01*
X53138095Y-110226247D02*
X53138095Y-110083390D01*
X53138095Y-110083390D02*
X53185714Y-109892914D01*
X53185714Y-109892914D02*
X53233333Y-109797676D01*
X53233333Y-109797676D02*
X53328571Y-109702438D01*
X53328571Y-109702438D02*
X53471428Y-109654819D01*
X53471428Y-109654819D02*
X53566666Y-109654819D01*
X53566666Y-109654819D02*
X53709523Y-109702438D01*
X53709523Y-109702438D02*
X53757142Y-109750057D01*
X54090476Y-109654819D02*
X54709523Y-109654819D01*
X54709523Y-109654819D02*
X54376190Y-110035771D01*
X54376190Y-110035771D02*
X54519047Y-110035771D01*
X54519047Y-110035771D02*
X54614285Y-110083390D01*
X54614285Y-110083390D02*
X54661904Y-110131009D01*
X54661904Y-110131009D02*
X54709523Y-110226247D01*
X54709523Y-110226247D02*
X54709523Y-110464342D01*
X54709523Y-110464342D02*
X54661904Y-110559580D01*
X54661904Y-110559580D02*
X54614285Y-110607200D01*
X54614285Y-110607200D02*
X54519047Y-110654819D01*
X54519047Y-110654819D02*
X54233333Y-110654819D01*
X54233333Y-110654819D02*
X54138095Y-110607200D01*
X54138095Y-110607200D02*
X54090476Y-110559580D01*
X55328571Y-109654819D02*
X55423809Y-109654819D01*
X55423809Y-109654819D02*
X55519047Y-109702438D01*
X55519047Y-109702438D02*
X55566666Y-109750057D01*
X55566666Y-109750057D02*
X55614285Y-109845295D01*
X55614285Y-109845295D02*
X55661904Y-110035771D01*
X55661904Y-110035771D02*
X55661904Y-110273866D01*
X55661904Y-110273866D02*
X55614285Y-110464342D01*
X55614285Y-110464342D02*
X55566666Y-110559580D01*
X55566666Y-110559580D02*
X55519047Y-110607200D01*
X55519047Y-110607200D02*
X55423809Y-110654819D01*
X55423809Y-110654819D02*
X55328571Y-110654819D01*
X55328571Y-110654819D02*
X55233333Y-110607200D01*
X55233333Y-110607200D02*
X55185714Y-110559580D01*
X55185714Y-110559580D02*
X55138095Y-110464342D01*
X55138095Y-110464342D02*
X55090476Y-110273866D01*
X55090476Y-110273866D02*
X55090476Y-110035771D01*
X55090476Y-110035771D02*
X55138095Y-109845295D01*
X55138095Y-109845295D02*
X55185714Y-109750057D01*
X55185714Y-109750057D02*
X55233333Y-109702438D01*
X55233333Y-109702438D02*
X55328571Y-109654819D01*
X70559580Y-128918857D02*
X70607200Y-128966476D01*
X70607200Y-128966476D02*
X70654819Y-129109333D01*
X70654819Y-129109333D02*
X70654819Y-129204571D01*
X70654819Y-129204571D02*
X70607200Y-129347428D01*
X70607200Y-129347428D02*
X70511961Y-129442666D01*
X70511961Y-129442666D02*
X70416723Y-129490285D01*
X70416723Y-129490285D02*
X70226247Y-129537904D01*
X70226247Y-129537904D02*
X70083390Y-129537904D01*
X70083390Y-129537904D02*
X69892914Y-129490285D01*
X69892914Y-129490285D02*
X69797676Y-129442666D01*
X69797676Y-129442666D02*
X69702438Y-129347428D01*
X69702438Y-129347428D02*
X69654819Y-129204571D01*
X69654819Y-129204571D02*
X69654819Y-129109333D01*
X69654819Y-129109333D02*
X69702438Y-128966476D01*
X69702438Y-128966476D02*
X69750057Y-128918857D01*
X69654819Y-128585523D02*
X69654819Y-127966476D01*
X69654819Y-127966476D02*
X70035771Y-128299809D01*
X70035771Y-128299809D02*
X70035771Y-128156952D01*
X70035771Y-128156952D02*
X70083390Y-128061714D01*
X70083390Y-128061714D02*
X70131009Y-128014095D01*
X70131009Y-128014095D02*
X70226247Y-127966476D01*
X70226247Y-127966476D02*
X70464342Y-127966476D01*
X70464342Y-127966476D02*
X70559580Y-128014095D01*
X70559580Y-128014095D02*
X70607200Y-128061714D01*
X70607200Y-128061714D02*
X70654819Y-128156952D01*
X70654819Y-128156952D02*
X70654819Y-128442666D01*
X70654819Y-128442666D02*
X70607200Y-128537904D01*
X70607200Y-128537904D02*
X70559580Y-128585523D01*
X69654819Y-127061714D02*
X69654819Y-127537904D01*
X69654819Y-127537904D02*
X70131009Y-127585523D01*
X70131009Y-127585523D02*
X70083390Y-127537904D01*
X70083390Y-127537904D02*
X70035771Y-127442666D01*
X70035771Y-127442666D02*
X70035771Y-127204571D01*
X70035771Y-127204571D02*
X70083390Y-127109333D01*
X70083390Y-127109333D02*
X70131009Y-127061714D01*
X70131009Y-127061714D02*
X70226247Y-127014095D01*
X70226247Y-127014095D02*
X70464342Y-127014095D01*
X70464342Y-127014095D02*
X70559580Y-127061714D01*
X70559580Y-127061714D02*
X70607200Y-127109333D01*
X70607200Y-127109333D02*
X70654819Y-127204571D01*
X70654819Y-127204571D02*
X70654819Y-127442666D01*
X70654819Y-127442666D02*
X70607200Y-127537904D01*
X70607200Y-127537904D02*
X70559580Y-127585523D01*
X104466667Y-91454819D02*
X104466667Y-90454819D01*
X104466667Y-90454819D02*
X104800000Y-91169104D01*
X104800000Y-91169104D02*
X105133333Y-90454819D01*
X105133333Y-90454819D02*
X105133333Y-91454819D01*
X105609524Y-91454819D02*
X105609524Y-90454819D01*
X105609524Y-90931009D02*
X106180952Y-90931009D01*
X106180952Y-91454819D02*
X106180952Y-90454819D01*
X106609524Y-90550057D02*
X106657143Y-90502438D01*
X106657143Y-90502438D02*
X106752381Y-90454819D01*
X106752381Y-90454819D02*
X106990476Y-90454819D01*
X106990476Y-90454819D02*
X107085714Y-90502438D01*
X107085714Y-90502438D02*
X107133333Y-90550057D01*
X107133333Y-90550057D02*
X107180952Y-90645295D01*
X107180952Y-90645295D02*
X107180952Y-90740533D01*
X107180952Y-90740533D02*
X107133333Y-90883390D01*
X107133333Y-90883390D02*
X106561905Y-91454819D01*
X106561905Y-91454819D02*
X107180952Y-91454819D01*
X74190476Y-92054819D02*
X74857142Y-93054819D01*
X74857142Y-92054819D02*
X74190476Y-93054819D01*
X75666666Y-92388152D02*
X75666666Y-93054819D01*
X75428571Y-92007200D02*
X75190476Y-92721485D01*
X75190476Y-92721485D02*
X75809523Y-92721485D01*
X91361905Y-140254819D02*
X91361905Y-139254819D01*
X91361905Y-139254819D02*
X91600000Y-139254819D01*
X91600000Y-139254819D02*
X91742857Y-139302438D01*
X91742857Y-139302438D02*
X91838095Y-139397676D01*
X91838095Y-139397676D02*
X91885714Y-139492914D01*
X91885714Y-139492914D02*
X91933333Y-139683390D01*
X91933333Y-139683390D02*
X91933333Y-139826247D01*
X91933333Y-139826247D02*
X91885714Y-140016723D01*
X91885714Y-140016723D02*
X91838095Y-140111961D01*
X91838095Y-140111961D02*
X91742857Y-140207200D01*
X91742857Y-140207200D02*
X91600000Y-140254819D01*
X91600000Y-140254819D02*
X91361905Y-140254819D01*
X92361905Y-140254819D02*
X92361905Y-139254819D01*
X92361905Y-139254819D02*
X92600000Y-139254819D01*
X92600000Y-139254819D02*
X92742857Y-139302438D01*
X92742857Y-139302438D02*
X92838095Y-139397676D01*
X92838095Y-139397676D02*
X92885714Y-139492914D01*
X92885714Y-139492914D02*
X92933333Y-139683390D01*
X92933333Y-139683390D02*
X92933333Y-139826247D01*
X92933333Y-139826247D02*
X92885714Y-140016723D01*
X92885714Y-140016723D02*
X92838095Y-140111961D01*
X92838095Y-140111961D02*
X92742857Y-140207200D01*
X92742857Y-140207200D02*
X92600000Y-140254819D01*
X92600000Y-140254819D02*
X92361905Y-140254819D01*
X93314286Y-139350057D02*
X93361905Y-139302438D01*
X93361905Y-139302438D02*
X93457143Y-139254819D01*
X93457143Y-139254819D02*
X93695238Y-139254819D01*
X93695238Y-139254819D02*
X93790476Y-139302438D01*
X93790476Y-139302438D02*
X93838095Y-139350057D01*
X93838095Y-139350057D02*
X93885714Y-139445295D01*
X93885714Y-139445295D02*
X93885714Y-139540533D01*
X93885714Y-139540533D02*
X93838095Y-139683390D01*
X93838095Y-139683390D02*
X93266667Y-140254819D01*
X93266667Y-140254819D02*
X93885714Y-140254819D01*
X92557142Y-121759580D02*
X92509523Y-121807200D01*
X92509523Y-121807200D02*
X92366666Y-121854819D01*
X92366666Y-121854819D02*
X92271428Y-121854819D01*
X92271428Y-121854819D02*
X92128571Y-121807200D01*
X92128571Y-121807200D02*
X92033333Y-121711961D01*
X92033333Y-121711961D02*
X91985714Y-121616723D01*
X91985714Y-121616723D02*
X91938095Y-121426247D01*
X91938095Y-121426247D02*
X91938095Y-121283390D01*
X91938095Y-121283390D02*
X91985714Y-121092914D01*
X91985714Y-121092914D02*
X92033333Y-120997676D01*
X92033333Y-120997676D02*
X92128571Y-120902438D01*
X92128571Y-120902438D02*
X92271428Y-120854819D01*
X92271428Y-120854819D02*
X92366666Y-120854819D01*
X92366666Y-120854819D02*
X92509523Y-120902438D01*
X92509523Y-120902438D02*
X92557142Y-120950057D01*
X92890476Y-120854819D02*
X93509523Y-120854819D01*
X93509523Y-120854819D02*
X93176190Y-121235771D01*
X93176190Y-121235771D02*
X93319047Y-121235771D01*
X93319047Y-121235771D02*
X93414285Y-121283390D01*
X93414285Y-121283390D02*
X93461904Y-121331009D01*
X93461904Y-121331009D02*
X93509523Y-121426247D01*
X93509523Y-121426247D02*
X93509523Y-121664342D01*
X93509523Y-121664342D02*
X93461904Y-121759580D01*
X93461904Y-121759580D02*
X93414285Y-121807200D01*
X93414285Y-121807200D02*
X93319047Y-121854819D01*
X93319047Y-121854819D02*
X93033333Y-121854819D01*
X93033333Y-121854819D02*
X92938095Y-121807200D01*
X92938095Y-121807200D02*
X92890476Y-121759580D01*
X94461904Y-121854819D02*
X93890476Y-121854819D01*
X94176190Y-121854819D02*
X94176190Y-120854819D01*
X94176190Y-120854819D02*
X94080952Y-120997676D01*
X94080952Y-120997676D02*
X93985714Y-121092914D01*
X93985714Y-121092914D02*
X93890476Y-121140533D01*
X67359580Y-135042857D02*
X67407200Y-135090476D01*
X67407200Y-135090476D02*
X67454819Y-135233333D01*
X67454819Y-135233333D02*
X67454819Y-135328571D01*
X67454819Y-135328571D02*
X67407200Y-135471428D01*
X67407200Y-135471428D02*
X67311961Y-135566666D01*
X67311961Y-135566666D02*
X67216723Y-135614285D01*
X67216723Y-135614285D02*
X67026247Y-135661904D01*
X67026247Y-135661904D02*
X66883390Y-135661904D01*
X66883390Y-135661904D02*
X66692914Y-135614285D01*
X66692914Y-135614285D02*
X66597676Y-135566666D01*
X66597676Y-135566666D02*
X66502438Y-135471428D01*
X66502438Y-135471428D02*
X66454819Y-135328571D01*
X66454819Y-135328571D02*
X66454819Y-135233333D01*
X66454819Y-135233333D02*
X66502438Y-135090476D01*
X66502438Y-135090476D02*
X66550057Y-135042857D01*
X66454819Y-134709523D02*
X66454819Y-134090476D01*
X66454819Y-134090476D02*
X66835771Y-134423809D01*
X66835771Y-134423809D02*
X66835771Y-134280952D01*
X66835771Y-134280952D02*
X66883390Y-134185714D01*
X66883390Y-134185714D02*
X66931009Y-134138095D01*
X66931009Y-134138095D02*
X67026247Y-134090476D01*
X67026247Y-134090476D02*
X67264342Y-134090476D01*
X67264342Y-134090476D02*
X67359580Y-134138095D01*
X67359580Y-134138095D02*
X67407200Y-134185714D01*
X67407200Y-134185714D02*
X67454819Y-134280952D01*
X67454819Y-134280952D02*
X67454819Y-134566666D01*
X67454819Y-134566666D02*
X67407200Y-134661904D01*
X67407200Y-134661904D02*
X67359580Y-134709523D01*
X66454819Y-133757142D02*
X66454819Y-133090476D01*
X66454819Y-133090476D02*
X67454819Y-133519047D01*
X46440476Y-107695819D02*
X47107142Y-108695819D01*
X47107142Y-107695819D02*
X46440476Y-108695819D01*
X47392857Y-107695819D02*
X48011904Y-107695819D01*
X48011904Y-107695819D02*
X47678571Y-108076771D01*
X47678571Y-108076771D02*
X47821428Y-108076771D01*
X47821428Y-108076771D02*
X47916666Y-108124390D01*
X47916666Y-108124390D02*
X47964285Y-108172009D01*
X47964285Y-108172009D02*
X48011904Y-108267247D01*
X48011904Y-108267247D02*
X48011904Y-108505342D01*
X48011904Y-108505342D02*
X47964285Y-108600580D01*
X47964285Y-108600580D02*
X47916666Y-108648200D01*
X47916666Y-108648200D02*
X47821428Y-108695819D01*
X47821428Y-108695819D02*
X47535714Y-108695819D01*
X47535714Y-108695819D02*
X47440476Y-108648200D01*
X47440476Y-108648200D02*
X47392857Y-108600580D01*
X92357142Y-114159580D02*
X92309523Y-114207200D01*
X92309523Y-114207200D02*
X92166666Y-114254819D01*
X92166666Y-114254819D02*
X92071428Y-114254819D01*
X92071428Y-114254819D02*
X91928571Y-114207200D01*
X91928571Y-114207200D02*
X91833333Y-114111961D01*
X91833333Y-114111961D02*
X91785714Y-114016723D01*
X91785714Y-114016723D02*
X91738095Y-113826247D01*
X91738095Y-113826247D02*
X91738095Y-113683390D01*
X91738095Y-113683390D02*
X91785714Y-113492914D01*
X91785714Y-113492914D02*
X91833333Y-113397676D01*
X91833333Y-113397676D02*
X91928571Y-113302438D01*
X91928571Y-113302438D02*
X92071428Y-113254819D01*
X92071428Y-113254819D02*
X92166666Y-113254819D01*
X92166666Y-113254819D02*
X92309523Y-113302438D01*
X92309523Y-113302438D02*
X92357142Y-113350057D01*
X92738095Y-113350057D02*
X92785714Y-113302438D01*
X92785714Y-113302438D02*
X92880952Y-113254819D01*
X92880952Y-113254819D02*
X93119047Y-113254819D01*
X93119047Y-113254819D02*
X93214285Y-113302438D01*
X93214285Y-113302438D02*
X93261904Y-113350057D01*
X93261904Y-113350057D02*
X93309523Y-113445295D01*
X93309523Y-113445295D02*
X93309523Y-113540533D01*
X93309523Y-113540533D02*
X93261904Y-113683390D01*
X93261904Y-113683390D02*
X92690476Y-114254819D01*
X92690476Y-114254819D02*
X93309523Y-114254819D01*
X93785714Y-114254819D02*
X93976190Y-114254819D01*
X93976190Y-114254819D02*
X94071428Y-114207200D01*
X94071428Y-114207200D02*
X94119047Y-114159580D01*
X94119047Y-114159580D02*
X94214285Y-114016723D01*
X94214285Y-114016723D02*
X94261904Y-113826247D01*
X94261904Y-113826247D02*
X94261904Y-113445295D01*
X94261904Y-113445295D02*
X94214285Y-113350057D01*
X94214285Y-113350057D02*
X94166666Y-113302438D01*
X94166666Y-113302438D02*
X94071428Y-113254819D01*
X94071428Y-113254819D02*
X93880952Y-113254819D01*
X93880952Y-113254819D02*
X93785714Y-113302438D01*
X93785714Y-113302438D02*
X93738095Y-113350057D01*
X93738095Y-113350057D02*
X93690476Y-113445295D01*
X93690476Y-113445295D02*
X93690476Y-113683390D01*
X93690476Y-113683390D02*
X93738095Y-113778628D01*
X93738095Y-113778628D02*
X93785714Y-113826247D01*
X93785714Y-113826247D02*
X93880952Y-113873866D01*
X93880952Y-113873866D02*
X94071428Y-113873866D01*
X94071428Y-113873866D02*
X94166666Y-113826247D01*
X94166666Y-113826247D02*
X94214285Y-113778628D01*
X94214285Y-113778628D02*
X94261904Y-113683390D01*
X80357142Y-92959580D02*
X80309523Y-93007200D01*
X80309523Y-93007200D02*
X80166666Y-93054819D01*
X80166666Y-93054819D02*
X80071428Y-93054819D01*
X80071428Y-93054819D02*
X79928571Y-93007200D01*
X79928571Y-93007200D02*
X79833333Y-92911961D01*
X79833333Y-92911961D02*
X79785714Y-92816723D01*
X79785714Y-92816723D02*
X79738095Y-92626247D01*
X79738095Y-92626247D02*
X79738095Y-92483390D01*
X79738095Y-92483390D02*
X79785714Y-92292914D01*
X79785714Y-92292914D02*
X79833333Y-92197676D01*
X79833333Y-92197676D02*
X79928571Y-92102438D01*
X79928571Y-92102438D02*
X80071428Y-92054819D01*
X80071428Y-92054819D02*
X80166666Y-92054819D01*
X80166666Y-92054819D02*
X80309523Y-92102438D01*
X80309523Y-92102438D02*
X80357142Y-92150057D01*
X81309523Y-93054819D02*
X80738095Y-93054819D01*
X81023809Y-93054819D02*
X81023809Y-92054819D01*
X81023809Y-92054819D02*
X80928571Y-92197676D01*
X80928571Y-92197676D02*
X80833333Y-92292914D01*
X80833333Y-92292914D02*
X80738095Y-92340533D01*
X81642857Y-92054819D02*
X82309523Y-92054819D01*
X82309523Y-92054819D02*
X81880952Y-93054819D01*
X83659524Y-91454819D02*
X84326190Y-92454819D01*
X84326190Y-91454819D02*
X83659524Y-92454819D01*
X84469048Y-92550057D02*
X85230952Y-92550057D01*
X86040476Y-92454819D02*
X85707143Y-91978628D01*
X85469048Y-92454819D02*
X85469048Y-91454819D01*
X85469048Y-91454819D02*
X85850000Y-91454819D01*
X85850000Y-91454819D02*
X85945238Y-91502438D01*
X85945238Y-91502438D02*
X85992857Y-91550057D01*
X85992857Y-91550057D02*
X86040476Y-91645295D01*
X86040476Y-91645295D02*
X86040476Y-91788152D01*
X86040476Y-91788152D02*
X85992857Y-91883390D01*
X85992857Y-91883390D02*
X85945238Y-91931009D01*
X85945238Y-91931009D02*
X85850000Y-91978628D01*
X85850000Y-91978628D02*
X85469048Y-91978628D01*
X87040476Y-92359580D02*
X86992857Y-92407200D01*
X86992857Y-92407200D02*
X86850000Y-92454819D01*
X86850000Y-92454819D02*
X86754762Y-92454819D01*
X86754762Y-92454819D02*
X86611905Y-92407200D01*
X86611905Y-92407200D02*
X86516667Y-92311961D01*
X86516667Y-92311961D02*
X86469048Y-92216723D01*
X86469048Y-92216723D02*
X86421429Y-92026247D01*
X86421429Y-92026247D02*
X86421429Y-91883390D01*
X86421429Y-91883390D02*
X86469048Y-91692914D01*
X86469048Y-91692914D02*
X86516667Y-91597676D01*
X86516667Y-91597676D02*
X86611905Y-91502438D01*
X86611905Y-91502438D02*
X86754762Y-91454819D01*
X86754762Y-91454819D02*
X86850000Y-91454819D01*
X86850000Y-91454819D02*
X86992857Y-91502438D01*
X86992857Y-91502438D02*
X87040476Y-91550057D01*
X87992857Y-92454819D02*
X87421429Y-92454819D01*
X87707143Y-92454819D02*
X87707143Y-91454819D01*
X87707143Y-91454819D02*
X87611905Y-91597676D01*
X87611905Y-91597676D02*
X87516667Y-91692914D01*
X87516667Y-91692914D02*
X87421429Y-91740533D01*
X70033333Y-132854819D02*
X69700000Y-132378628D01*
X69461905Y-132854819D02*
X69461905Y-131854819D01*
X69461905Y-131854819D02*
X69842857Y-131854819D01*
X69842857Y-131854819D02*
X69938095Y-131902438D01*
X69938095Y-131902438D02*
X69985714Y-131950057D01*
X69985714Y-131950057D02*
X70033333Y-132045295D01*
X70033333Y-132045295D02*
X70033333Y-132188152D01*
X70033333Y-132188152D02*
X69985714Y-132283390D01*
X69985714Y-132283390D02*
X69938095Y-132331009D01*
X69938095Y-132331009D02*
X69842857Y-132378628D01*
X69842857Y-132378628D02*
X69461905Y-132378628D01*
X70985714Y-132854819D02*
X70414286Y-132854819D01*
X70700000Y-132854819D02*
X70700000Y-131854819D01*
X70700000Y-131854819D02*
X70604762Y-131997676D01*
X70604762Y-131997676D02*
X70509524Y-132092914D01*
X70509524Y-132092914D02*
X70414286Y-132140533D01*
X70559580Y-118642857D02*
X70607200Y-118690476D01*
X70607200Y-118690476D02*
X70654819Y-118833333D01*
X70654819Y-118833333D02*
X70654819Y-118928571D01*
X70654819Y-118928571D02*
X70607200Y-119071428D01*
X70607200Y-119071428D02*
X70511961Y-119166666D01*
X70511961Y-119166666D02*
X70416723Y-119214285D01*
X70416723Y-119214285D02*
X70226247Y-119261904D01*
X70226247Y-119261904D02*
X70083390Y-119261904D01*
X70083390Y-119261904D02*
X69892914Y-119214285D01*
X69892914Y-119214285D02*
X69797676Y-119166666D01*
X69797676Y-119166666D02*
X69702438Y-119071428D01*
X69702438Y-119071428D02*
X69654819Y-118928571D01*
X69654819Y-118928571D02*
X69654819Y-118833333D01*
X69654819Y-118833333D02*
X69702438Y-118690476D01*
X69702438Y-118690476D02*
X69750057Y-118642857D01*
X70654819Y-117690476D02*
X70654819Y-118261904D01*
X70654819Y-117976190D02*
X69654819Y-117976190D01*
X69654819Y-117976190D02*
X69797676Y-118071428D01*
X69797676Y-118071428D02*
X69892914Y-118166666D01*
X69892914Y-118166666D02*
X69940533Y-118261904D01*
X70083390Y-117119047D02*
X70035771Y-117214285D01*
X70035771Y-117214285D02*
X69988152Y-117261904D01*
X69988152Y-117261904D02*
X69892914Y-117309523D01*
X69892914Y-117309523D02*
X69845295Y-117309523D01*
X69845295Y-117309523D02*
X69750057Y-117261904D01*
X69750057Y-117261904D02*
X69702438Y-117214285D01*
X69702438Y-117214285D02*
X69654819Y-117119047D01*
X69654819Y-117119047D02*
X69654819Y-116928571D01*
X69654819Y-116928571D02*
X69702438Y-116833333D01*
X69702438Y-116833333D02*
X69750057Y-116785714D01*
X69750057Y-116785714D02*
X69845295Y-116738095D01*
X69845295Y-116738095D02*
X69892914Y-116738095D01*
X69892914Y-116738095D02*
X69988152Y-116785714D01*
X69988152Y-116785714D02*
X70035771Y-116833333D01*
X70035771Y-116833333D02*
X70083390Y-116928571D01*
X70083390Y-116928571D02*
X70083390Y-117119047D01*
X70083390Y-117119047D02*
X70131009Y-117214285D01*
X70131009Y-117214285D02*
X70178628Y-117261904D01*
X70178628Y-117261904D02*
X70273866Y-117309523D01*
X70273866Y-117309523D02*
X70464342Y-117309523D01*
X70464342Y-117309523D02*
X70559580Y-117261904D01*
X70559580Y-117261904D02*
X70607200Y-117214285D01*
X70607200Y-117214285D02*
X70654819Y-117119047D01*
X70654819Y-117119047D02*
X70654819Y-116928571D01*
X70654819Y-116928571D02*
X70607200Y-116833333D01*
X70607200Y-116833333D02*
X70559580Y-116785714D01*
X70559580Y-116785714D02*
X70464342Y-116738095D01*
X70464342Y-116738095D02*
X70273866Y-116738095D01*
X70273866Y-116738095D02*
X70178628Y-116785714D01*
X70178628Y-116785714D02*
X70131009Y-116833333D01*
X70131009Y-116833333D02*
X70083390Y-116928571D01*
X100790476Y-123054819D02*
X101457142Y-124054819D01*
X101457142Y-123054819D02*
X100790476Y-124054819D01*
X101790476Y-123150057D02*
X101838095Y-123102438D01*
X101838095Y-123102438D02*
X101933333Y-123054819D01*
X101933333Y-123054819D02*
X102171428Y-123054819D01*
X102171428Y-123054819D02*
X102266666Y-123102438D01*
X102266666Y-123102438D02*
X102314285Y-123150057D01*
X102314285Y-123150057D02*
X102361904Y-123245295D01*
X102361904Y-123245295D02*
X102361904Y-123340533D01*
X102361904Y-123340533D02*
X102314285Y-123483390D01*
X102314285Y-123483390D02*
X101742857Y-124054819D01*
X101742857Y-124054819D02*
X102361904Y-124054819D01*
X72957142Y-109559580D02*
X72909523Y-109607200D01*
X72909523Y-109607200D02*
X72766666Y-109654819D01*
X72766666Y-109654819D02*
X72671428Y-109654819D01*
X72671428Y-109654819D02*
X72528571Y-109607200D01*
X72528571Y-109607200D02*
X72433333Y-109511961D01*
X72433333Y-109511961D02*
X72385714Y-109416723D01*
X72385714Y-109416723D02*
X72338095Y-109226247D01*
X72338095Y-109226247D02*
X72338095Y-109083390D01*
X72338095Y-109083390D02*
X72385714Y-108892914D01*
X72385714Y-108892914D02*
X72433333Y-108797676D01*
X72433333Y-108797676D02*
X72528571Y-108702438D01*
X72528571Y-108702438D02*
X72671428Y-108654819D01*
X72671428Y-108654819D02*
X72766666Y-108654819D01*
X72766666Y-108654819D02*
X72909523Y-108702438D01*
X72909523Y-108702438D02*
X72957142Y-108750057D01*
X73290476Y-108654819D02*
X73909523Y-108654819D01*
X73909523Y-108654819D02*
X73576190Y-109035771D01*
X73576190Y-109035771D02*
X73719047Y-109035771D01*
X73719047Y-109035771D02*
X73814285Y-109083390D01*
X73814285Y-109083390D02*
X73861904Y-109131009D01*
X73861904Y-109131009D02*
X73909523Y-109226247D01*
X73909523Y-109226247D02*
X73909523Y-109464342D01*
X73909523Y-109464342D02*
X73861904Y-109559580D01*
X73861904Y-109559580D02*
X73814285Y-109607200D01*
X73814285Y-109607200D02*
X73719047Y-109654819D01*
X73719047Y-109654819D02*
X73433333Y-109654819D01*
X73433333Y-109654819D02*
X73338095Y-109607200D01*
X73338095Y-109607200D02*
X73290476Y-109559580D01*
X74242857Y-108654819D02*
X74861904Y-108654819D01*
X74861904Y-108654819D02*
X74528571Y-109035771D01*
X74528571Y-109035771D02*
X74671428Y-109035771D01*
X74671428Y-109035771D02*
X74766666Y-109083390D01*
X74766666Y-109083390D02*
X74814285Y-109131009D01*
X74814285Y-109131009D02*
X74861904Y-109226247D01*
X74861904Y-109226247D02*
X74861904Y-109464342D01*
X74861904Y-109464342D02*
X74814285Y-109559580D01*
X74814285Y-109559580D02*
X74766666Y-109607200D01*
X74766666Y-109607200D02*
X74671428Y-109654819D01*
X74671428Y-109654819D02*
X74385714Y-109654819D01*
X74385714Y-109654819D02*
X74290476Y-109607200D01*
X74290476Y-109607200D02*
X74242857Y-109559580D01*
X52159580Y-105243857D02*
X52207200Y-105291476D01*
X52207200Y-105291476D02*
X52254819Y-105434333D01*
X52254819Y-105434333D02*
X52254819Y-105529571D01*
X52254819Y-105529571D02*
X52207200Y-105672428D01*
X52207200Y-105672428D02*
X52111961Y-105767666D01*
X52111961Y-105767666D02*
X52016723Y-105815285D01*
X52016723Y-105815285D02*
X51826247Y-105862904D01*
X51826247Y-105862904D02*
X51683390Y-105862904D01*
X51683390Y-105862904D02*
X51492914Y-105815285D01*
X51492914Y-105815285D02*
X51397676Y-105767666D01*
X51397676Y-105767666D02*
X51302438Y-105672428D01*
X51302438Y-105672428D02*
X51254819Y-105529571D01*
X51254819Y-105529571D02*
X51254819Y-105434333D01*
X51254819Y-105434333D02*
X51302438Y-105291476D01*
X51302438Y-105291476D02*
X51350057Y-105243857D01*
X52254819Y-104291476D02*
X52254819Y-104862904D01*
X52254819Y-104577190D02*
X51254819Y-104577190D01*
X51254819Y-104577190D02*
X51397676Y-104672428D01*
X51397676Y-104672428D02*
X51492914Y-104767666D01*
X51492914Y-104767666D02*
X51540533Y-104862904D01*
X52254819Y-103339095D02*
X52254819Y-103910523D01*
X52254819Y-103624809D02*
X51254819Y-103624809D01*
X51254819Y-103624809D02*
X51397676Y-103720047D01*
X51397676Y-103720047D02*
X51492914Y-103815285D01*
X51492914Y-103815285D02*
X51540533Y-103910523D01*
X55216667Y-116635819D02*
X55883333Y-116635819D01*
X55883333Y-116635819D02*
X55216667Y-117635819D01*
X55216667Y-117635819D02*
X55883333Y-117635819D01*
X56930952Y-117731057D02*
X56835714Y-117683438D01*
X56835714Y-117683438D02*
X56740476Y-117588200D01*
X56740476Y-117588200D02*
X56597619Y-117445342D01*
X56597619Y-117445342D02*
X56502381Y-117397723D01*
X56502381Y-117397723D02*
X56407143Y-117397723D01*
X56454762Y-117635819D02*
X56359524Y-117588200D01*
X56359524Y-117588200D02*
X56264286Y-117492961D01*
X56264286Y-117492961D02*
X56216667Y-117302485D01*
X56216667Y-117302485D02*
X56216667Y-116969152D01*
X56216667Y-116969152D02*
X56264286Y-116778676D01*
X56264286Y-116778676D02*
X56359524Y-116683438D01*
X56359524Y-116683438D02*
X56454762Y-116635819D01*
X56454762Y-116635819D02*
X56645238Y-116635819D01*
X56645238Y-116635819D02*
X56740476Y-116683438D01*
X56740476Y-116683438D02*
X56835714Y-116778676D01*
X56835714Y-116778676D02*
X56883333Y-116969152D01*
X56883333Y-116969152D02*
X56883333Y-117302485D01*
X56883333Y-117302485D02*
X56835714Y-117492961D01*
X56835714Y-117492961D02*
X56740476Y-117588200D01*
X56740476Y-117588200D02*
X56645238Y-117635819D01*
X56645238Y-117635819D02*
X56454762Y-117635819D01*
X57835714Y-117635819D02*
X57264286Y-117635819D01*
X57550000Y-117635819D02*
X57550000Y-116635819D01*
X57550000Y-116635819D02*
X57454762Y-116778676D01*
X57454762Y-116778676D02*
X57359524Y-116873914D01*
X57359524Y-116873914D02*
X57264286Y-116921533D01*
X75557142Y-136759580D02*
X75509523Y-136807200D01*
X75509523Y-136807200D02*
X75366666Y-136854819D01*
X75366666Y-136854819D02*
X75271428Y-136854819D01*
X75271428Y-136854819D02*
X75128571Y-136807200D01*
X75128571Y-136807200D02*
X75033333Y-136711961D01*
X75033333Y-136711961D02*
X74985714Y-136616723D01*
X74985714Y-136616723D02*
X74938095Y-136426247D01*
X74938095Y-136426247D02*
X74938095Y-136283390D01*
X74938095Y-136283390D02*
X74985714Y-136092914D01*
X74985714Y-136092914D02*
X75033333Y-135997676D01*
X75033333Y-135997676D02*
X75128571Y-135902438D01*
X75128571Y-135902438D02*
X75271428Y-135854819D01*
X75271428Y-135854819D02*
X75366666Y-135854819D01*
X75366666Y-135854819D02*
X75509523Y-135902438D01*
X75509523Y-135902438D02*
X75557142Y-135950057D01*
X75938095Y-135950057D02*
X75985714Y-135902438D01*
X75985714Y-135902438D02*
X76080952Y-135854819D01*
X76080952Y-135854819D02*
X76319047Y-135854819D01*
X76319047Y-135854819D02*
X76414285Y-135902438D01*
X76414285Y-135902438D02*
X76461904Y-135950057D01*
X76461904Y-135950057D02*
X76509523Y-136045295D01*
X76509523Y-136045295D02*
X76509523Y-136140533D01*
X76509523Y-136140533D02*
X76461904Y-136283390D01*
X76461904Y-136283390D02*
X75890476Y-136854819D01*
X75890476Y-136854819D02*
X76509523Y-136854819D01*
X77461904Y-136854819D02*
X76890476Y-136854819D01*
X77176190Y-136854819D02*
X77176190Y-135854819D01*
X77176190Y-135854819D02*
X77080952Y-135997676D01*
X77080952Y-135997676D02*
X76985714Y-136092914D01*
X76985714Y-136092914D02*
X76890476Y-136140533D01*
X53357142Y-127559580D02*
X53309523Y-127607200D01*
X53309523Y-127607200D02*
X53166666Y-127654819D01*
X53166666Y-127654819D02*
X53071428Y-127654819D01*
X53071428Y-127654819D02*
X52928571Y-127607200D01*
X52928571Y-127607200D02*
X52833333Y-127511961D01*
X52833333Y-127511961D02*
X52785714Y-127416723D01*
X52785714Y-127416723D02*
X52738095Y-127226247D01*
X52738095Y-127226247D02*
X52738095Y-127083390D01*
X52738095Y-127083390D02*
X52785714Y-126892914D01*
X52785714Y-126892914D02*
X52833333Y-126797676D01*
X52833333Y-126797676D02*
X52928571Y-126702438D01*
X52928571Y-126702438D02*
X53071428Y-126654819D01*
X53071428Y-126654819D02*
X53166666Y-126654819D01*
X53166666Y-126654819D02*
X53309523Y-126702438D01*
X53309523Y-126702438D02*
X53357142Y-126750057D01*
X54309523Y-127654819D02*
X53738095Y-127654819D01*
X54023809Y-127654819D02*
X54023809Y-126654819D01*
X54023809Y-126654819D02*
X53928571Y-126797676D01*
X53928571Y-126797676D02*
X53833333Y-126892914D01*
X53833333Y-126892914D02*
X53738095Y-126940533D01*
X55214285Y-126654819D02*
X54738095Y-126654819D01*
X54738095Y-126654819D02*
X54690476Y-127131009D01*
X54690476Y-127131009D02*
X54738095Y-127083390D01*
X54738095Y-127083390D02*
X54833333Y-127035771D01*
X54833333Y-127035771D02*
X55071428Y-127035771D01*
X55071428Y-127035771D02*
X55166666Y-127083390D01*
X55166666Y-127083390D02*
X55214285Y-127131009D01*
X55214285Y-127131009D02*
X55261904Y-127226247D01*
X55261904Y-127226247D02*
X55261904Y-127464342D01*
X55261904Y-127464342D02*
X55214285Y-127559580D01*
X55214285Y-127559580D02*
X55166666Y-127607200D01*
X55166666Y-127607200D02*
X55071428Y-127654819D01*
X55071428Y-127654819D02*
X54833333Y-127654819D01*
X54833333Y-127654819D02*
X54738095Y-127607200D01*
X54738095Y-127607200D02*
X54690476Y-127559580D01*
X98159580Y-131642857D02*
X98207200Y-131690476D01*
X98207200Y-131690476D02*
X98254819Y-131833333D01*
X98254819Y-131833333D02*
X98254819Y-131928571D01*
X98254819Y-131928571D02*
X98207200Y-132071428D01*
X98207200Y-132071428D02*
X98111961Y-132166666D01*
X98111961Y-132166666D02*
X98016723Y-132214285D01*
X98016723Y-132214285D02*
X97826247Y-132261904D01*
X97826247Y-132261904D02*
X97683390Y-132261904D01*
X97683390Y-132261904D02*
X97492914Y-132214285D01*
X97492914Y-132214285D02*
X97397676Y-132166666D01*
X97397676Y-132166666D02*
X97302438Y-132071428D01*
X97302438Y-132071428D02*
X97254819Y-131928571D01*
X97254819Y-131928571D02*
X97254819Y-131833333D01*
X97254819Y-131833333D02*
X97302438Y-131690476D01*
X97302438Y-131690476D02*
X97350057Y-131642857D01*
X97350057Y-131261904D02*
X97302438Y-131214285D01*
X97302438Y-131214285D02*
X97254819Y-131119047D01*
X97254819Y-131119047D02*
X97254819Y-130880952D01*
X97254819Y-130880952D02*
X97302438Y-130785714D01*
X97302438Y-130785714D02*
X97350057Y-130738095D01*
X97350057Y-130738095D02*
X97445295Y-130690476D01*
X97445295Y-130690476D02*
X97540533Y-130690476D01*
X97540533Y-130690476D02*
X97683390Y-130738095D01*
X97683390Y-130738095D02*
X98254819Y-131309523D01*
X98254819Y-131309523D02*
X98254819Y-130690476D01*
X97683390Y-130119047D02*
X97635771Y-130214285D01*
X97635771Y-130214285D02*
X97588152Y-130261904D01*
X97588152Y-130261904D02*
X97492914Y-130309523D01*
X97492914Y-130309523D02*
X97445295Y-130309523D01*
X97445295Y-130309523D02*
X97350057Y-130261904D01*
X97350057Y-130261904D02*
X97302438Y-130214285D01*
X97302438Y-130214285D02*
X97254819Y-130119047D01*
X97254819Y-130119047D02*
X97254819Y-129928571D01*
X97254819Y-129928571D02*
X97302438Y-129833333D01*
X97302438Y-129833333D02*
X97350057Y-129785714D01*
X97350057Y-129785714D02*
X97445295Y-129738095D01*
X97445295Y-129738095D02*
X97492914Y-129738095D01*
X97492914Y-129738095D02*
X97588152Y-129785714D01*
X97588152Y-129785714D02*
X97635771Y-129833333D01*
X97635771Y-129833333D02*
X97683390Y-129928571D01*
X97683390Y-129928571D02*
X97683390Y-130119047D01*
X97683390Y-130119047D02*
X97731009Y-130214285D01*
X97731009Y-130214285D02*
X97778628Y-130261904D01*
X97778628Y-130261904D02*
X97873866Y-130309523D01*
X97873866Y-130309523D02*
X98064342Y-130309523D01*
X98064342Y-130309523D02*
X98159580Y-130261904D01*
X98159580Y-130261904D02*
X98207200Y-130214285D01*
X98207200Y-130214285D02*
X98254819Y-130119047D01*
X98254819Y-130119047D02*
X98254819Y-129928571D01*
X98254819Y-129928571D02*
X98207200Y-129833333D01*
X98207200Y-129833333D02*
X98159580Y-129785714D01*
X98159580Y-129785714D02*
X98064342Y-129738095D01*
X98064342Y-129738095D02*
X97873866Y-129738095D01*
X97873866Y-129738095D02*
X97778628Y-129785714D01*
X97778628Y-129785714D02*
X97731009Y-129833333D01*
X97731009Y-129833333D02*
X97683390Y-129928571D01*
X65957142Y-96189580D02*
X65909523Y-96237200D01*
X65909523Y-96237200D02*
X65766666Y-96284819D01*
X65766666Y-96284819D02*
X65671428Y-96284819D01*
X65671428Y-96284819D02*
X65528571Y-96237200D01*
X65528571Y-96237200D02*
X65433333Y-96141961D01*
X65433333Y-96141961D02*
X65385714Y-96046723D01*
X65385714Y-96046723D02*
X65338095Y-95856247D01*
X65338095Y-95856247D02*
X65338095Y-95713390D01*
X65338095Y-95713390D02*
X65385714Y-95522914D01*
X65385714Y-95522914D02*
X65433333Y-95427676D01*
X65433333Y-95427676D02*
X65528571Y-95332438D01*
X65528571Y-95332438D02*
X65671428Y-95284819D01*
X65671428Y-95284819D02*
X65766666Y-95284819D01*
X65766666Y-95284819D02*
X65909523Y-95332438D01*
X65909523Y-95332438D02*
X65957142Y-95380057D01*
X66290476Y-95284819D02*
X66909523Y-95284819D01*
X66909523Y-95284819D02*
X66576190Y-95665771D01*
X66576190Y-95665771D02*
X66719047Y-95665771D01*
X66719047Y-95665771D02*
X66814285Y-95713390D01*
X66814285Y-95713390D02*
X66861904Y-95761009D01*
X66861904Y-95761009D02*
X66909523Y-95856247D01*
X66909523Y-95856247D02*
X66909523Y-96094342D01*
X66909523Y-96094342D02*
X66861904Y-96189580D01*
X66861904Y-96189580D02*
X66814285Y-96237200D01*
X66814285Y-96237200D02*
X66719047Y-96284819D01*
X66719047Y-96284819D02*
X66433333Y-96284819D01*
X66433333Y-96284819D02*
X66338095Y-96237200D01*
X66338095Y-96237200D02*
X66290476Y-96189580D01*
X67385714Y-96284819D02*
X67576190Y-96284819D01*
X67576190Y-96284819D02*
X67671428Y-96237200D01*
X67671428Y-96237200D02*
X67719047Y-96189580D01*
X67719047Y-96189580D02*
X67814285Y-96046723D01*
X67814285Y-96046723D02*
X67861904Y-95856247D01*
X67861904Y-95856247D02*
X67861904Y-95475295D01*
X67861904Y-95475295D02*
X67814285Y-95380057D01*
X67814285Y-95380057D02*
X67766666Y-95332438D01*
X67766666Y-95332438D02*
X67671428Y-95284819D01*
X67671428Y-95284819D02*
X67480952Y-95284819D01*
X67480952Y-95284819D02*
X67385714Y-95332438D01*
X67385714Y-95332438D02*
X67338095Y-95380057D01*
X67338095Y-95380057D02*
X67290476Y-95475295D01*
X67290476Y-95475295D02*
X67290476Y-95713390D01*
X67290476Y-95713390D02*
X67338095Y-95808628D01*
X67338095Y-95808628D02*
X67385714Y-95856247D01*
X67385714Y-95856247D02*
X67480952Y-95903866D01*
X67480952Y-95903866D02*
X67671428Y-95903866D01*
X67671428Y-95903866D02*
X67766666Y-95856247D01*
X67766666Y-95856247D02*
X67814285Y-95808628D01*
X67814285Y-95808628D02*
X67861904Y-95713390D01*
X66557142Y-111559580D02*
X66509523Y-111607200D01*
X66509523Y-111607200D02*
X66366666Y-111654819D01*
X66366666Y-111654819D02*
X66271428Y-111654819D01*
X66271428Y-111654819D02*
X66128571Y-111607200D01*
X66128571Y-111607200D02*
X66033333Y-111511961D01*
X66033333Y-111511961D02*
X65985714Y-111416723D01*
X65985714Y-111416723D02*
X65938095Y-111226247D01*
X65938095Y-111226247D02*
X65938095Y-111083390D01*
X65938095Y-111083390D02*
X65985714Y-110892914D01*
X65985714Y-110892914D02*
X66033333Y-110797676D01*
X66033333Y-110797676D02*
X66128571Y-110702438D01*
X66128571Y-110702438D02*
X66271428Y-110654819D01*
X66271428Y-110654819D02*
X66366666Y-110654819D01*
X66366666Y-110654819D02*
X66509523Y-110702438D01*
X66509523Y-110702438D02*
X66557142Y-110750057D01*
X67509523Y-111654819D02*
X66938095Y-111654819D01*
X67223809Y-111654819D02*
X67223809Y-110654819D01*
X67223809Y-110654819D02*
X67128571Y-110797676D01*
X67128571Y-110797676D02*
X67033333Y-110892914D01*
X67033333Y-110892914D02*
X66938095Y-110940533D01*
X68366666Y-110654819D02*
X68176190Y-110654819D01*
X68176190Y-110654819D02*
X68080952Y-110702438D01*
X68080952Y-110702438D02*
X68033333Y-110750057D01*
X68033333Y-110750057D02*
X67938095Y-110892914D01*
X67938095Y-110892914D02*
X67890476Y-111083390D01*
X67890476Y-111083390D02*
X67890476Y-111464342D01*
X67890476Y-111464342D02*
X67938095Y-111559580D01*
X67938095Y-111559580D02*
X67985714Y-111607200D01*
X67985714Y-111607200D02*
X68080952Y-111654819D01*
X68080952Y-111654819D02*
X68271428Y-111654819D01*
X68271428Y-111654819D02*
X68366666Y-111607200D01*
X68366666Y-111607200D02*
X68414285Y-111559580D01*
X68414285Y-111559580D02*
X68461904Y-111464342D01*
X68461904Y-111464342D02*
X68461904Y-111226247D01*
X68461904Y-111226247D02*
X68414285Y-111131009D01*
X68414285Y-111131009D02*
X68366666Y-111083390D01*
X68366666Y-111083390D02*
X68271428Y-111035771D01*
X68271428Y-111035771D02*
X68080952Y-111035771D01*
X68080952Y-111035771D02*
X67985714Y-111083390D01*
X67985714Y-111083390D02*
X67938095Y-111131009D01*
X67938095Y-111131009D02*
X67890476Y-111226247D01*
X94033333Y-125454819D02*
X93700000Y-124978628D01*
X93461905Y-125454819D02*
X93461905Y-124454819D01*
X93461905Y-124454819D02*
X93842857Y-124454819D01*
X93842857Y-124454819D02*
X93938095Y-124502438D01*
X93938095Y-124502438D02*
X93985714Y-124550057D01*
X93985714Y-124550057D02*
X94033333Y-124645295D01*
X94033333Y-124645295D02*
X94033333Y-124788152D01*
X94033333Y-124788152D02*
X93985714Y-124883390D01*
X93985714Y-124883390D02*
X93938095Y-124931009D01*
X93938095Y-124931009D02*
X93842857Y-124978628D01*
X93842857Y-124978628D02*
X93461905Y-124978628D01*
X94938095Y-124454819D02*
X94461905Y-124454819D01*
X94461905Y-124454819D02*
X94414286Y-124931009D01*
X94414286Y-124931009D02*
X94461905Y-124883390D01*
X94461905Y-124883390D02*
X94557143Y-124835771D01*
X94557143Y-124835771D02*
X94795238Y-124835771D01*
X94795238Y-124835771D02*
X94890476Y-124883390D01*
X94890476Y-124883390D02*
X94938095Y-124931009D01*
X94938095Y-124931009D02*
X94985714Y-125026247D01*
X94985714Y-125026247D02*
X94985714Y-125264342D01*
X94985714Y-125264342D02*
X94938095Y-125359580D01*
X94938095Y-125359580D02*
X94890476Y-125407200D01*
X94890476Y-125407200D02*
X94795238Y-125454819D01*
X94795238Y-125454819D02*
X94557143Y-125454819D01*
X94557143Y-125454819D02*
X94461905Y-125407200D01*
X94461905Y-125407200D02*
X94414286Y-125359580D01*
X77359580Y-104366666D02*
X77407200Y-104414285D01*
X77407200Y-104414285D02*
X77454819Y-104557142D01*
X77454819Y-104557142D02*
X77454819Y-104652380D01*
X77454819Y-104652380D02*
X77407200Y-104795237D01*
X77407200Y-104795237D02*
X77311961Y-104890475D01*
X77311961Y-104890475D02*
X77216723Y-104938094D01*
X77216723Y-104938094D02*
X77026247Y-104985713D01*
X77026247Y-104985713D02*
X76883390Y-104985713D01*
X76883390Y-104985713D02*
X76692914Y-104938094D01*
X76692914Y-104938094D02*
X76597676Y-104890475D01*
X76597676Y-104890475D02*
X76502438Y-104795237D01*
X76502438Y-104795237D02*
X76454819Y-104652380D01*
X76454819Y-104652380D02*
X76454819Y-104557142D01*
X76454819Y-104557142D02*
X76502438Y-104414285D01*
X76502438Y-104414285D02*
X76550057Y-104366666D01*
X76883390Y-103795237D02*
X76835771Y-103890475D01*
X76835771Y-103890475D02*
X76788152Y-103938094D01*
X76788152Y-103938094D02*
X76692914Y-103985713D01*
X76692914Y-103985713D02*
X76645295Y-103985713D01*
X76645295Y-103985713D02*
X76550057Y-103938094D01*
X76550057Y-103938094D02*
X76502438Y-103890475D01*
X76502438Y-103890475D02*
X76454819Y-103795237D01*
X76454819Y-103795237D02*
X76454819Y-103604761D01*
X76454819Y-103604761D02*
X76502438Y-103509523D01*
X76502438Y-103509523D02*
X76550057Y-103461904D01*
X76550057Y-103461904D02*
X76645295Y-103414285D01*
X76645295Y-103414285D02*
X76692914Y-103414285D01*
X76692914Y-103414285D02*
X76788152Y-103461904D01*
X76788152Y-103461904D02*
X76835771Y-103509523D01*
X76835771Y-103509523D02*
X76883390Y-103604761D01*
X76883390Y-103604761D02*
X76883390Y-103795237D01*
X76883390Y-103795237D02*
X76931009Y-103890475D01*
X76931009Y-103890475D02*
X76978628Y-103938094D01*
X76978628Y-103938094D02*
X77073866Y-103985713D01*
X77073866Y-103985713D02*
X77264342Y-103985713D01*
X77264342Y-103985713D02*
X77359580Y-103938094D01*
X77359580Y-103938094D02*
X77407200Y-103890475D01*
X77407200Y-103890475D02*
X77454819Y-103795237D01*
X77454819Y-103795237D02*
X77454819Y-103604761D01*
X77454819Y-103604761D02*
X77407200Y-103509523D01*
X77407200Y-103509523D02*
X77359580Y-103461904D01*
X77359580Y-103461904D02*
X77264342Y-103414285D01*
X77264342Y-103414285D02*
X77073866Y-103414285D01*
X77073866Y-103414285D02*
X76978628Y-103461904D01*
X76978628Y-103461904D02*
X76931009Y-103509523D01*
X76931009Y-103509523D02*
X76883390Y-103604761D01*
X65633333Y-126959580D02*
X65585714Y-127007200D01*
X65585714Y-127007200D02*
X65442857Y-127054819D01*
X65442857Y-127054819D02*
X65347619Y-127054819D01*
X65347619Y-127054819D02*
X65204762Y-127007200D01*
X65204762Y-127007200D02*
X65109524Y-126911961D01*
X65109524Y-126911961D02*
X65061905Y-126816723D01*
X65061905Y-126816723D02*
X65014286Y-126626247D01*
X65014286Y-126626247D02*
X65014286Y-126483390D01*
X65014286Y-126483390D02*
X65061905Y-126292914D01*
X65061905Y-126292914D02*
X65109524Y-126197676D01*
X65109524Y-126197676D02*
X65204762Y-126102438D01*
X65204762Y-126102438D02*
X65347619Y-126054819D01*
X65347619Y-126054819D02*
X65442857Y-126054819D01*
X65442857Y-126054819D02*
X65585714Y-126102438D01*
X65585714Y-126102438D02*
X65633333Y-126150057D01*
X66109524Y-127054819D02*
X66300000Y-127054819D01*
X66300000Y-127054819D02*
X66395238Y-127007200D01*
X66395238Y-127007200D02*
X66442857Y-126959580D01*
X66442857Y-126959580D02*
X66538095Y-126816723D01*
X66538095Y-126816723D02*
X66585714Y-126626247D01*
X66585714Y-126626247D02*
X66585714Y-126245295D01*
X66585714Y-126245295D02*
X66538095Y-126150057D01*
X66538095Y-126150057D02*
X66490476Y-126102438D01*
X66490476Y-126102438D02*
X66395238Y-126054819D01*
X66395238Y-126054819D02*
X66204762Y-126054819D01*
X66204762Y-126054819D02*
X66109524Y-126102438D01*
X66109524Y-126102438D02*
X66061905Y-126150057D01*
X66061905Y-126150057D02*
X66014286Y-126245295D01*
X66014286Y-126245295D02*
X66014286Y-126483390D01*
X66014286Y-126483390D02*
X66061905Y-126578628D01*
X66061905Y-126578628D02*
X66109524Y-126626247D01*
X66109524Y-126626247D02*
X66204762Y-126673866D01*
X66204762Y-126673866D02*
X66395238Y-126673866D01*
X66395238Y-126673866D02*
X66490476Y-126626247D01*
X66490476Y-126626247D02*
X66538095Y-126578628D01*
X66538095Y-126578628D02*
X66585714Y-126483390D01*
X78790476Y-149654819D02*
X79457142Y-150654819D01*
X79457142Y-149654819D02*
X78790476Y-150654819D01*
X80314285Y-149654819D02*
X79838095Y-149654819D01*
X79838095Y-149654819D02*
X79790476Y-150131009D01*
X79790476Y-150131009D02*
X79838095Y-150083390D01*
X79838095Y-150083390D02*
X79933333Y-150035771D01*
X79933333Y-150035771D02*
X80171428Y-150035771D01*
X80171428Y-150035771D02*
X80266666Y-150083390D01*
X80266666Y-150083390D02*
X80314285Y-150131009D01*
X80314285Y-150131009D02*
X80361904Y-150226247D01*
X80361904Y-150226247D02*
X80361904Y-150464342D01*
X80361904Y-150464342D02*
X80314285Y-150559580D01*
X80314285Y-150559580D02*
X80266666Y-150607200D01*
X80266666Y-150607200D02*
X80171428Y-150654819D01*
X80171428Y-150654819D02*
X79933333Y-150654819D01*
X79933333Y-150654819D02*
X79838095Y-150607200D01*
X79838095Y-150607200D02*
X79790476Y-150559580D01*
X50658333Y-112185819D02*
X50325000Y-111709628D01*
X50086905Y-112185819D02*
X50086905Y-111185819D01*
X50086905Y-111185819D02*
X50467857Y-111185819D01*
X50467857Y-111185819D02*
X50563095Y-111233438D01*
X50563095Y-111233438D02*
X50610714Y-111281057D01*
X50610714Y-111281057D02*
X50658333Y-111376295D01*
X50658333Y-111376295D02*
X50658333Y-111519152D01*
X50658333Y-111519152D02*
X50610714Y-111614390D01*
X50610714Y-111614390D02*
X50563095Y-111662009D01*
X50563095Y-111662009D02*
X50467857Y-111709628D01*
X50467857Y-111709628D02*
X50086905Y-111709628D01*
X51515476Y-111185819D02*
X51325000Y-111185819D01*
X51325000Y-111185819D02*
X51229762Y-111233438D01*
X51229762Y-111233438D02*
X51182143Y-111281057D01*
X51182143Y-111281057D02*
X51086905Y-111423914D01*
X51086905Y-111423914D02*
X51039286Y-111614390D01*
X51039286Y-111614390D02*
X51039286Y-111995342D01*
X51039286Y-111995342D02*
X51086905Y-112090580D01*
X51086905Y-112090580D02*
X51134524Y-112138200D01*
X51134524Y-112138200D02*
X51229762Y-112185819D01*
X51229762Y-112185819D02*
X51420238Y-112185819D01*
X51420238Y-112185819D02*
X51515476Y-112138200D01*
X51515476Y-112138200D02*
X51563095Y-112090580D01*
X51563095Y-112090580D02*
X51610714Y-111995342D01*
X51610714Y-111995342D02*
X51610714Y-111757247D01*
X51610714Y-111757247D02*
X51563095Y-111662009D01*
X51563095Y-111662009D02*
X51515476Y-111614390D01*
X51515476Y-111614390D02*
X51420238Y-111566771D01*
X51420238Y-111566771D02*
X51229762Y-111566771D01*
X51229762Y-111566771D02*
X51134524Y-111614390D01*
X51134524Y-111614390D02*
X51086905Y-111662009D01*
X51086905Y-111662009D02*
X51039286Y-111757247D01*
X91359580Y-131242857D02*
X91407200Y-131290476D01*
X91407200Y-131290476D02*
X91454819Y-131433333D01*
X91454819Y-131433333D02*
X91454819Y-131528571D01*
X91454819Y-131528571D02*
X91407200Y-131671428D01*
X91407200Y-131671428D02*
X91311961Y-131766666D01*
X91311961Y-131766666D02*
X91216723Y-131814285D01*
X91216723Y-131814285D02*
X91026247Y-131861904D01*
X91026247Y-131861904D02*
X90883390Y-131861904D01*
X90883390Y-131861904D02*
X90692914Y-131814285D01*
X90692914Y-131814285D02*
X90597676Y-131766666D01*
X90597676Y-131766666D02*
X90502438Y-131671428D01*
X90502438Y-131671428D02*
X90454819Y-131528571D01*
X90454819Y-131528571D02*
X90454819Y-131433333D01*
X90454819Y-131433333D02*
X90502438Y-131290476D01*
X90502438Y-131290476D02*
X90550057Y-131242857D01*
X90550057Y-130861904D02*
X90502438Y-130814285D01*
X90502438Y-130814285D02*
X90454819Y-130719047D01*
X90454819Y-130719047D02*
X90454819Y-130480952D01*
X90454819Y-130480952D02*
X90502438Y-130385714D01*
X90502438Y-130385714D02*
X90550057Y-130338095D01*
X90550057Y-130338095D02*
X90645295Y-130290476D01*
X90645295Y-130290476D02*
X90740533Y-130290476D01*
X90740533Y-130290476D02*
X90883390Y-130338095D01*
X90883390Y-130338095D02*
X91454819Y-130909523D01*
X91454819Y-130909523D02*
X91454819Y-130290476D01*
X90454819Y-129957142D02*
X90454819Y-129338095D01*
X90454819Y-129338095D02*
X90835771Y-129671428D01*
X90835771Y-129671428D02*
X90835771Y-129528571D01*
X90835771Y-129528571D02*
X90883390Y-129433333D01*
X90883390Y-129433333D02*
X90931009Y-129385714D01*
X90931009Y-129385714D02*
X91026247Y-129338095D01*
X91026247Y-129338095D02*
X91264342Y-129338095D01*
X91264342Y-129338095D02*
X91359580Y-129385714D01*
X91359580Y-129385714D02*
X91407200Y-129433333D01*
X91407200Y-129433333D02*
X91454819Y-129528571D01*
X91454819Y-129528571D02*
X91454819Y-129814285D01*
X91454819Y-129814285D02*
X91407200Y-129909523D01*
X91407200Y-129909523D02*
X91359580Y-129957142D01*
X81033333Y-101854819D02*
X80700000Y-101378628D01*
X80461905Y-101854819D02*
X80461905Y-100854819D01*
X80461905Y-100854819D02*
X80842857Y-100854819D01*
X80842857Y-100854819D02*
X80938095Y-100902438D01*
X80938095Y-100902438D02*
X80985714Y-100950057D01*
X80985714Y-100950057D02*
X81033333Y-101045295D01*
X81033333Y-101045295D02*
X81033333Y-101188152D01*
X81033333Y-101188152D02*
X80985714Y-101283390D01*
X80985714Y-101283390D02*
X80938095Y-101331009D01*
X80938095Y-101331009D02*
X80842857Y-101378628D01*
X80842857Y-101378628D02*
X80461905Y-101378628D01*
X81890476Y-101188152D02*
X81890476Y-101854819D01*
X81652381Y-100807200D02*
X81414286Y-101521485D01*
X81414286Y-101521485D02*
X82033333Y-101521485D01*
X70833333Y-96454819D02*
X70500000Y-95978628D01*
X70261905Y-96454819D02*
X70261905Y-95454819D01*
X70261905Y-95454819D02*
X70642857Y-95454819D01*
X70642857Y-95454819D02*
X70738095Y-95502438D01*
X70738095Y-95502438D02*
X70785714Y-95550057D01*
X70785714Y-95550057D02*
X70833333Y-95645295D01*
X70833333Y-95645295D02*
X70833333Y-95788152D01*
X70833333Y-95788152D02*
X70785714Y-95883390D01*
X70785714Y-95883390D02*
X70738095Y-95931009D01*
X70738095Y-95931009D02*
X70642857Y-95978628D01*
X70642857Y-95978628D02*
X70261905Y-95978628D01*
X71166667Y-95454819D02*
X71833333Y-95454819D01*
X71833333Y-95454819D02*
X71404762Y-96454819D01*
X67833333Y-143959580D02*
X67785714Y-144007200D01*
X67785714Y-144007200D02*
X67642857Y-144054819D01*
X67642857Y-144054819D02*
X67547619Y-144054819D01*
X67547619Y-144054819D02*
X67404762Y-144007200D01*
X67404762Y-144007200D02*
X67309524Y-143911961D01*
X67309524Y-143911961D02*
X67261905Y-143816723D01*
X67261905Y-143816723D02*
X67214286Y-143626247D01*
X67214286Y-143626247D02*
X67214286Y-143483390D01*
X67214286Y-143483390D02*
X67261905Y-143292914D01*
X67261905Y-143292914D02*
X67309524Y-143197676D01*
X67309524Y-143197676D02*
X67404762Y-143102438D01*
X67404762Y-143102438D02*
X67547619Y-143054819D01*
X67547619Y-143054819D02*
X67642857Y-143054819D01*
X67642857Y-143054819D02*
X67785714Y-143102438D01*
X67785714Y-143102438D02*
X67833333Y-143150057D01*
X68214286Y-143150057D02*
X68261905Y-143102438D01*
X68261905Y-143102438D02*
X68357143Y-143054819D01*
X68357143Y-143054819D02*
X68595238Y-143054819D01*
X68595238Y-143054819D02*
X68690476Y-143102438D01*
X68690476Y-143102438D02*
X68738095Y-143150057D01*
X68738095Y-143150057D02*
X68785714Y-143245295D01*
X68785714Y-143245295D02*
X68785714Y-143340533D01*
X68785714Y-143340533D02*
X68738095Y-143483390D01*
X68738095Y-143483390D02*
X68166667Y-144054819D01*
X68166667Y-144054819D02*
X68785714Y-144054819D01*
X77559580Y-100942666D02*
X77607200Y-100990285D01*
X77607200Y-100990285D02*
X77654819Y-101133142D01*
X77654819Y-101133142D02*
X77654819Y-101228380D01*
X77654819Y-101228380D02*
X77607200Y-101371237D01*
X77607200Y-101371237D02*
X77511961Y-101466475D01*
X77511961Y-101466475D02*
X77416723Y-101514094D01*
X77416723Y-101514094D02*
X77226247Y-101561713D01*
X77226247Y-101561713D02*
X77083390Y-101561713D01*
X77083390Y-101561713D02*
X76892914Y-101514094D01*
X76892914Y-101514094D02*
X76797676Y-101466475D01*
X76797676Y-101466475D02*
X76702438Y-101371237D01*
X76702438Y-101371237D02*
X76654819Y-101228380D01*
X76654819Y-101228380D02*
X76654819Y-101133142D01*
X76654819Y-101133142D02*
X76702438Y-100990285D01*
X76702438Y-100990285D02*
X76750057Y-100942666D01*
X76654819Y-100609332D02*
X76654819Y-99942666D01*
X76654819Y-99942666D02*
X77654819Y-100371237D01*
X77157142Y-132959580D02*
X77109523Y-133007200D01*
X77109523Y-133007200D02*
X76966666Y-133054819D01*
X76966666Y-133054819D02*
X76871428Y-133054819D01*
X76871428Y-133054819D02*
X76728571Y-133007200D01*
X76728571Y-133007200D02*
X76633333Y-132911961D01*
X76633333Y-132911961D02*
X76585714Y-132816723D01*
X76585714Y-132816723D02*
X76538095Y-132626247D01*
X76538095Y-132626247D02*
X76538095Y-132483390D01*
X76538095Y-132483390D02*
X76585714Y-132292914D01*
X76585714Y-132292914D02*
X76633333Y-132197676D01*
X76633333Y-132197676D02*
X76728571Y-132102438D01*
X76728571Y-132102438D02*
X76871428Y-132054819D01*
X76871428Y-132054819D02*
X76966666Y-132054819D01*
X76966666Y-132054819D02*
X77109523Y-132102438D01*
X77109523Y-132102438D02*
X77157142Y-132150057D01*
X77538095Y-132150057D02*
X77585714Y-132102438D01*
X77585714Y-132102438D02*
X77680952Y-132054819D01*
X77680952Y-132054819D02*
X77919047Y-132054819D01*
X77919047Y-132054819D02*
X78014285Y-132102438D01*
X78014285Y-132102438D02*
X78061904Y-132150057D01*
X78061904Y-132150057D02*
X78109523Y-132245295D01*
X78109523Y-132245295D02*
X78109523Y-132340533D01*
X78109523Y-132340533D02*
X78061904Y-132483390D01*
X78061904Y-132483390D02*
X77490476Y-133054819D01*
X77490476Y-133054819D02*
X78109523Y-133054819D01*
X78966666Y-132388152D02*
X78966666Y-133054819D01*
X78728571Y-132007200D02*
X78490476Y-132721485D01*
X78490476Y-132721485D02*
X79109523Y-132721485D01*
X71961905Y-138254819D02*
X71961905Y-137254819D01*
X71961905Y-137254819D02*
X72200000Y-137254819D01*
X72200000Y-137254819D02*
X72342857Y-137302438D01*
X72342857Y-137302438D02*
X72438095Y-137397676D01*
X72438095Y-137397676D02*
X72485714Y-137492914D01*
X72485714Y-137492914D02*
X72533333Y-137683390D01*
X72533333Y-137683390D02*
X72533333Y-137826247D01*
X72533333Y-137826247D02*
X72485714Y-138016723D01*
X72485714Y-138016723D02*
X72438095Y-138111961D01*
X72438095Y-138111961D02*
X72342857Y-138207200D01*
X72342857Y-138207200D02*
X72200000Y-138254819D01*
X72200000Y-138254819D02*
X71961905Y-138254819D01*
X72961905Y-138254819D02*
X72961905Y-137254819D01*
X72961905Y-137254819D02*
X73200000Y-137254819D01*
X73200000Y-137254819D02*
X73342857Y-137302438D01*
X73342857Y-137302438D02*
X73438095Y-137397676D01*
X73438095Y-137397676D02*
X73485714Y-137492914D01*
X73485714Y-137492914D02*
X73533333Y-137683390D01*
X73533333Y-137683390D02*
X73533333Y-137826247D01*
X73533333Y-137826247D02*
X73485714Y-138016723D01*
X73485714Y-138016723D02*
X73438095Y-138111961D01*
X73438095Y-138111961D02*
X73342857Y-138207200D01*
X73342857Y-138207200D02*
X73200000Y-138254819D01*
X73200000Y-138254819D02*
X72961905Y-138254819D01*
X74390476Y-137588152D02*
X74390476Y-138254819D01*
X74152381Y-137207200D02*
X73914286Y-137921485D01*
X73914286Y-137921485D02*
X74533333Y-137921485D01*
X89557142Y-117959580D02*
X89509523Y-118007200D01*
X89509523Y-118007200D02*
X89366666Y-118054819D01*
X89366666Y-118054819D02*
X89271428Y-118054819D01*
X89271428Y-118054819D02*
X89128571Y-118007200D01*
X89128571Y-118007200D02*
X89033333Y-117911961D01*
X89033333Y-117911961D02*
X88985714Y-117816723D01*
X88985714Y-117816723D02*
X88938095Y-117626247D01*
X88938095Y-117626247D02*
X88938095Y-117483390D01*
X88938095Y-117483390D02*
X88985714Y-117292914D01*
X88985714Y-117292914D02*
X89033333Y-117197676D01*
X89033333Y-117197676D02*
X89128571Y-117102438D01*
X89128571Y-117102438D02*
X89271428Y-117054819D01*
X89271428Y-117054819D02*
X89366666Y-117054819D01*
X89366666Y-117054819D02*
X89509523Y-117102438D01*
X89509523Y-117102438D02*
X89557142Y-117150057D01*
X89890476Y-117054819D02*
X90509523Y-117054819D01*
X90509523Y-117054819D02*
X90176190Y-117435771D01*
X90176190Y-117435771D02*
X90319047Y-117435771D01*
X90319047Y-117435771D02*
X90414285Y-117483390D01*
X90414285Y-117483390D02*
X90461904Y-117531009D01*
X90461904Y-117531009D02*
X90509523Y-117626247D01*
X90509523Y-117626247D02*
X90509523Y-117864342D01*
X90509523Y-117864342D02*
X90461904Y-117959580D01*
X90461904Y-117959580D02*
X90414285Y-118007200D01*
X90414285Y-118007200D02*
X90319047Y-118054819D01*
X90319047Y-118054819D02*
X90033333Y-118054819D01*
X90033333Y-118054819D02*
X89938095Y-118007200D01*
X89938095Y-118007200D02*
X89890476Y-117959580D01*
X91366666Y-117054819D02*
X91176190Y-117054819D01*
X91176190Y-117054819D02*
X91080952Y-117102438D01*
X91080952Y-117102438D02*
X91033333Y-117150057D01*
X91033333Y-117150057D02*
X90938095Y-117292914D01*
X90938095Y-117292914D02*
X90890476Y-117483390D01*
X90890476Y-117483390D02*
X90890476Y-117864342D01*
X90890476Y-117864342D02*
X90938095Y-117959580D01*
X90938095Y-117959580D02*
X90985714Y-118007200D01*
X90985714Y-118007200D02*
X91080952Y-118054819D01*
X91080952Y-118054819D02*
X91271428Y-118054819D01*
X91271428Y-118054819D02*
X91366666Y-118007200D01*
X91366666Y-118007200D02*
X91414285Y-117959580D01*
X91414285Y-117959580D02*
X91461904Y-117864342D01*
X91461904Y-117864342D02*
X91461904Y-117626247D01*
X91461904Y-117626247D02*
X91414285Y-117531009D01*
X91414285Y-117531009D02*
X91366666Y-117483390D01*
X91366666Y-117483390D02*
X91271428Y-117435771D01*
X91271428Y-117435771D02*
X91080952Y-117435771D01*
X91080952Y-117435771D02*
X90985714Y-117483390D01*
X90985714Y-117483390D02*
X90938095Y-117531009D01*
X90938095Y-117531009D02*
X90890476Y-117626247D01*
X84433333Y-144854819D02*
X84100000Y-144378628D01*
X83861905Y-144854819D02*
X83861905Y-143854819D01*
X83861905Y-143854819D02*
X84242857Y-143854819D01*
X84242857Y-143854819D02*
X84338095Y-143902438D01*
X84338095Y-143902438D02*
X84385714Y-143950057D01*
X84385714Y-143950057D02*
X84433333Y-144045295D01*
X84433333Y-144045295D02*
X84433333Y-144188152D01*
X84433333Y-144188152D02*
X84385714Y-144283390D01*
X84385714Y-144283390D02*
X84338095Y-144331009D01*
X84338095Y-144331009D02*
X84242857Y-144378628D01*
X84242857Y-144378628D02*
X83861905Y-144378628D01*
X85004762Y-144283390D02*
X84909524Y-144235771D01*
X84909524Y-144235771D02*
X84861905Y-144188152D01*
X84861905Y-144188152D02*
X84814286Y-144092914D01*
X84814286Y-144092914D02*
X84814286Y-144045295D01*
X84814286Y-144045295D02*
X84861905Y-143950057D01*
X84861905Y-143950057D02*
X84909524Y-143902438D01*
X84909524Y-143902438D02*
X85004762Y-143854819D01*
X85004762Y-143854819D02*
X85195238Y-143854819D01*
X85195238Y-143854819D02*
X85290476Y-143902438D01*
X85290476Y-143902438D02*
X85338095Y-143950057D01*
X85338095Y-143950057D02*
X85385714Y-144045295D01*
X85385714Y-144045295D02*
X85385714Y-144092914D01*
X85385714Y-144092914D02*
X85338095Y-144188152D01*
X85338095Y-144188152D02*
X85290476Y-144235771D01*
X85290476Y-144235771D02*
X85195238Y-144283390D01*
X85195238Y-144283390D02*
X85004762Y-144283390D01*
X85004762Y-144283390D02*
X84909524Y-144331009D01*
X84909524Y-144331009D02*
X84861905Y-144378628D01*
X84861905Y-144378628D02*
X84814286Y-144473866D01*
X84814286Y-144473866D02*
X84814286Y-144664342D01*
X84814286Y-144664342D02*
X84861905Y-144759580D01*
X84861905Y-144759580D02*
X84909524Y-144807200D01*
X84909524Y-144807200D02*
X85004762Y-144854819D01*
X85004762Y-144854819D02*
X85195238Y-144854819D01*
X85195238Y-144854819D02*
X85290476Y-144807200D01*
X85290476Y-144807200D02*
X85338095Y-144759580D01*
X85338095Y-144759580D02*
X85385714Y-144664342D01*
X85385714Y-144664342D02*
X85385714Y-144473866D01*
X85385714Y-144473866D02*
X85338095Y-144378628D01*
X85338095Y-144378628D02*
X85290476Y-144331009D01*
X85290476Y-144331009D02*
X85195238Y-144283390D01*
X103466667Y-156054819D02*
X103466667Y-155054819D01*
X103466667Y-155054819D02*
X103800000Y-155769104D01*
X103800000Y-155769104D02*
X104133333Y-155054819D01*
X104133333Y-155054819D02*
X104133333Y-156054819D01*
X104609524Y-156054819D02*
X104609524Y-155054819D01*
X104609524Y-155531009D02*
X105180952Y-155531009D01*
X105180952Y-156054819D02*
X105180952Y-155054819D01*
X105561905Y-155054819D02*
X106180952Y-155054819D01*
X106180952Y-155054819D02*
X105847619Y-155435771D01*
X105847619Y-155435771D02*
X105990476Y-155435771D01*
X105990476Y-155435771D02*
X106085714Y-155483390D01*
X106085714Y-155483390D02*
X106133333Y-155531009D01*
X106133333Y-155531009D02*
X106180952Y-155626247D01*
X106180952Y-155626247D02*
X106180952Y-155864342D01*
X106180952Y-155864342D02*
X106133333Y-155959580D01*
X106133333Y-155959580D02*
X106085714Y-156007200D01*
X106085714Y-156007200D02*
X105990476Y-156054819D01*
X105990476Y-156054819D02*
X105704762Y-156054819D01*
X105704762Y-156054819D02*
X105609524Y-156007200D01*
X105609524Y-156007200D02*
X105561905Y-155959580D01*
D11*
%TO.C,DD3*%
X80350000Y-137411000D02*
X79990000Y-137051000D01*
X80350000Y-137051000D01*
X80350000Y-137411000D01*
G36*
X80350000Y-137411000D02*
G01*
X79990000Y-137051000D01*
X80350000Y-137051000D01*
X80350000Y-137411000D01*
G37*
X82550000Y-137051000D02*
X82550000Y-136901000D01*
X82550000Y-137051000D02*
X81910000Y-137051000D01*
X82550000Y-134351000D02*
X81910000Y-134351000D01*
X82525000Y-134626000D02*
X82525000Y-134476000D01*
X80990000Y-137051000D02*
X80550000Y-137051000D01*
X80990000Y-134351000D02*
X80350000Y-134351000D01*
X80350000Y-134501000D02*
X80350000Y-134351000D01*
D12*
%TO.C,C20*%
X68260000Y-120935420D02*
X68260000Y-121216580D01*
X69280000Y-120935420D02*
X69280000Y-121216580D01*
%TO.C,C32*%
X86140000Y-131335420D02*
X86140000Y-131616580D01*
X87160000Y-131335420D02*
X87160000Y-131616580D01*
%TO.C,C22*%
X68260000Y-124635420D02*
X68260000Y-124916580D01*
X69280000Y-124635420D02*
X69280000Y-124916580D01*
%TO.C,DA2*%
X67875000Y-98566000D02*
X71635000Y-98566000D01*
X67875000Y-105386000D02*
X71635000Y-105386000D01*
X71635000Y-98566000D02*
X71635000Y-99826000D01*
X71635000Y-105386000D02*
X71635000Y-104126000D01*
X66595000Y-98666000D02*
X66355000Y-98336000D01*
X66835000Y-98336000D01*
X66595000Y-98666000D01*
G36*
X66595000Y-98666000D02*
G01*
X66355000Y-98336000D01*
X66835000Y-98336000D01*
X66595000Y-98666000D01*
G37*
%TO.C,C6*%
X65815000Y-107035420D02*
X65815000Y-107316580D01*
X66835000Y-107035420D02*
X66835000Y-107316580D01*
%TO.C,X7*%
X101795000Y-105551000D02*
X103065000Y-105551000D01*
X101795000Y-106821000D02*
X101795000Y-105551000D01*
X104142358Y-108931000D02*
X104455000Y-108931000D01*
X104142358Y-109791000D02*
X104455000Y-109791000D01*
X104142358Y-111471000D02*
X104455000Y-111471000D01*
X104142358Y-112331000D02*
X104455000Y-112331000D01*
X104142358Y-114011000D02*
X104455000Y-114011000D01*
X104142358Y-114871000D02*
X104455000Y-114871000D01*
X104142358Y-116551000D02*
X104455000Y-116551000D01*
X104142358Y-117411000D02*
X104455000Y-117411000D01*
X104225000Y-106391000D02*
X104455000Y-106391000D01*
X104225000Y-107251000D02*
X104455000Y-107251000D01*
X104455000Y-105441000D02*
X104455000Y-118361000D01*
X104455000Y-108091000D02*
X107215000Y-108091000D01*
X104455000Y-110631000D02*
X107215000Y-110631000D01*
X104455000Y-113171000D02*
X107215000Y-113171000D01*
X104455000Y-115711000D02*
X107215000Y-115711000D01*
X104455000Y-118361000D02*
X107215000Y-118361000D01*
X107215000Y-105441000D02*
X104455000Y-105441000D01*
X107215000Y-108931000D02*
X113215000Y-108931000D01*
X107215000Y-111471000D02*
X113215000Y-111471000D01*
X107215000Y-114011000D02*
X113215000Y-114011000D01*
X107215000Y-116551000D02*
X113215000Y-116551000D01*
X107215000Y-118361000D02*
X107215000Y-105441000D01*
X113215000Y-108931000D02*
X113215000Y-109791000D01*
X113215000Y-109791000D02*
X107215000Y-109791000D01*
X113215000Y-111471000D02*
X113215000Y-112331000D01*
X113215000Y-112331000D02*
X107215000Y-112331000D01*
X113215000Y-114011000D02*
X113215000Y-114871000D01*
X113215000Y-114871000D02*
X107215000Y-114871000D01*
X113215000Y-116551000D02*
X113215000Y-117411000D01*
X113215000Y-117411000D02*
X107215000Y-117411000D01*
X107215000Y-106391000D02*
X113215000Y-106391000D01*
X113215000Y-107251000D01*
X107215000Y-107251000D01*
X107215000Y-106391000D01*
G36*
X107215000Y-106391000D02*
G01*
X113215000Y-106391000D01*
X113215000Y-107251000D01*
X107215000Y-107251000D01*
X107215000Y-106391000D01*
G37*
%TO.C,X1*%
X46005000Y-99921000D02*
X46005000Y-102681000D01*
X48655000Y-99921000D02*
X46005000Y-99921000D01*
X48655000Y-99921000D02*
X48655000Y-102681000D01*
X48655000Y-102681000D02*
X46005000Y-102681000D01*
X49925000Y-99921000D02*
X51305000Y-99921000D01*
X51305000Y-99921000D02*
X51305000Y-101301000D01*
%TO.C,C38*%
X79849420Y-143591000D02*
X80130580Y-143591000D01*
X79849420Y-144611000D02*
X80130580Y-144611000D01*
%TO.C,C1*%
X70702500Y-141285420D02*
X70702500Y-141566580D01*
X71722500Y-141285420D02*
X71722500Y-141566580D01*
%TO.C,C27*%
X88309420Y-128591000D02*
X88590580Y-128591000D01*
X88309420Y-129611000D02*
X88590580Y-129611000D01*
%TO.C,C4*%
X60015000Y-104435420D02*
X60015000Y-104716580D01*
X61035000Y-104435420D02*
X61035000Y-104716580D01*
%TO.C,C34*%
X61309420Y-132791000D02*
X61590580Y-132791000D01*
X61309420Y-133811000D02*
X61590580Y-133811000D01*
%TO.C,C26*%
X92540000Y-133535420D02*
X92540000Y-133816580D01*
X93560000Y-133535420D02*
X93560000Y-133816580D01*
%TO.C,C19*%
X83740000Y-136235420D02*
X83740000Y-136516580D01*
X84760000Y-136235420D02*
X84760000Y-136516580D01*
%TO.C,C3*%
X61615000Y-104435420D02*
X61615000Y-104716580D01*
X62635000Y-104435420D02*
X62635000Y-104716580D01*
%TO.C,R3*%
X62927500Y-122263742D02*
X62927500Y-122738258D01*
X63972500Y-122263742D02*
X63972500Y-122738258D01*
%TO.C,C14*%
X58309420Y-124991000D02*
X58590580Y-124991000D01*
X58309420Y-126011000D02*
X58590580Y-126011000D01*
%TO.C,SB1*%
X58205000Y-127363500D02*
X58205000Y-128673500D01*
X58205000Y-127363500D02*
X59588000Y-127363500D01*
X58445000Y-127603500D02*
X58445000Y-128673500D01*
X58445000Y-127603500D02*
X65265000Y-127603500D01*
X58445000Y-130753500D02*
X58445000Y-131823500D01*
X58445000Y-131823500D02*
X65265000Y-131823500D01*
X61251667Y-129078500D02*
X61251667Y-130348500D01*
X65265000Y-127603500D02*
X65265000Y-128753500D01*
X65265000Y-130673500D02*
X65265000Y-131823500D01*
X60045000Y-129078500D02*
X61251667Y-129078500D01*
X61251667Y-130348500D01*
X60045000Y-130348500D01*
X60045000Y-129078500D01*
G36*
X60045000Y-129078500D02*
G01*
X61251667Y-129078500D01*
X61251667Y-130348500D01*
X60045000Y-130348500D01*
X60045000Y-129078500D01*
G37*
X60045000Y-129078500D02*
X63665000Y-129078500D01*
X63665000Y-130348500D01*
X60045000Y-130348500D01*
X60045000Y-129078500D01*
%TO.C,C25*%
X94340000Y-133535420D02*
X94340000Y-133816580D01*
X95360000Y-133535420D02*
X95360000Y-133816580D01*
%TO.C,C40*%
X65760000Y-118635420D02*
X65760000Y-118916580D01*
X66780000Y-118635420D02*
X66780000Y-118916580D01*
%TO.C,C13*%
X66671920Y-137941000D02*
X66953080Y-137941000D01*
X66671920Y-138961000D02*
X66953080Y-138961000D01*
%TO.C,DD1*%
X72440000Y-113891000D02*
X73140000Y-113891000D01*
X72440000Y-114591000D02*
X72440000Y-113891000D01*
X72440000Y-128111000D02*
X72440000Y-127411000D01*
X73140000Y-128111000D02*
X72440000Y-128111000D01*
X85960000Y-113891000D02*
X86660000Y-113891000D01*
X86660000Y-113891000D02*
X86660000Y-114591000D01*
X86660000Y-127411000D02*
X86660000Y-128111000D01*
X86660000Y-128111000D02*
X85960000Y-128111000D01*
X71800000Y-114591000D02*
X71460000Y-114121000D01*
X72140000Y-114121000D01*
X71800000Y-114591000D01*
G36*
X71800000Y-114591000D02*
G01*
X71460000Y-114121000D01*
X72140000Y-114121000D01*
X71800000Y-114591000D01*
G37*
%TO.C,C5*%
X63815000Y-106435420D02*
X63815000Y-106716580D01*
X64835000Y-106435420D02*
X64835000Y-106716580D01*
%TO.C,C12*%
X54415000Y-104460420D02*
X54415000Y-104741580D01*
X55435000Y-104460420D02*
X55435000Y-104741580D01*
%TO.C,C10*%
X65629420Y-124491000D02*
X65910580Y-124491000D01*
X65629420Y-125511000D02*
X65910580Y-125511000D01*
%TO.C,DD5*%
X50640000Y-134591000D02*
X50640000Y-135041000D01*
X50640000Y-134591000D02*
X63060000Y-134591000D01*
X50640000Y-142961000D02*
X50640000Y-144641000D01*
X50640000Y-150361000D02*
X50640000Y-150811000D01*
X50640000Y-150811000D02*
X63060000Y-150811000D01*
X63060000Y-134591000D02*
X63060000Y-135041000D01*
X63060000Y-142961000D02*
X63060000Y-144641000D01*
X63060000Y-150361000D02*
X63060000Y-150801000D01*
X50150000Y-135041000D02*
X49910000Y-134711000D01*
X50390000Y-134711000D01*
X50150000Y-135041000D01*
G36*
X50150000Y-135041000D02*
G01*
X49910000Y-134711000D01*
X50390000Y-134711000D01*
X50150000Y-135041000D01*
G37*
%TO.C,R2*%
X70890000Y-134413742D02*
X70890000Y-134888258D01*
X71935000Y-134413742D02*
X71935000Y-134888258D01*
%TO.C,X6*%
X45290000Y-149926000D02*
X45290000Y-147226000D01*
X48010000Y-147176000D02*
X48010000Y-147816000D01*
X48010000Y-149336000D02*
X48640000Y-149336000D01*
X48010000Y-149976000D02*
X48010000Y-149336000D01*
%TO.C,DA1*%
X52615000Y-98266000D02*
X62835000Y-98266000D01*
X52615000Y-99646000D02*
X62835000Y-99646000D01*
X52615000Y-102886000D02*
X52615000Y-98266000D01*
X55875000Y-98266000D02*
X55875000Y-99646000D01*
X59575000Y-98266000D02*
X59575000Y-99646000D01*
X62835000Y-98266000D02*
X62835000Y-102886000D01*
X62835000Y-102886000D02*
X52615000Y-102886000D01*
%TO.C,C30*%
X51109420Y-109651000D02*
X51390580Y-109651000D01*
X51109420Y-110671000D02*
X51390580Y-110671000D01*
%TO.C,C35*%
X68260000Y-128135420D02*
X68260000Y-128416580D01*
X69280000Y-128135420D02*
X69280000Y-128416580D01*
%TO.C,X4*%
X65620000Y-92980000D02*
X65620000Y-91600000D01*
X67000000Y-92980000D02*
X65620000Y-92980000D01*
X68270000Y-90220000D02*
X73460000Y-90220000D01*
X68270000Y-92980000D02*
X68270000Y-90220000D01*
X68270000Y-92980000D02*
X73460000Y-92980000D01*
X73460000Y-92980000D02*
X73460000Y-90220000D01*
%TO.C,DD2*%
X91840000Y-135716000D02*
X92515000Y-135716000D01*
X91840000Y-135891000D02*
X91840000Y-135716000D01*
X91840000Y-138936000D02*
X91840000Y-138761000D01*
X92515000Y-138936000D02*
X91840000Y-138936000D01*
X94385000Y-135716000D02*
X95060000Y-135716000D01*
X95060000Y-135716000D02*
X95060000Y-135891000D01*
X95060000Y-138761000D02*
X95060000Y-138936000D01*
X95060000Y-138936000D02*
X94385000Y-138936000D01*
X91690000Y-136326000D02*
X91360000Y-136566000D01*
X91360000Y-136086000D01*
X91690000Y-136326000D01*
G36*
X91690000Y-136326000D02*
G01*
X91360000Y-136566000D01*
X91360000Y-136086000D01*
X91690000Y-136326000D01*
G37*
%TO.C,C31*%
X94740000Y-120735420D02*
X94740000Y-121016580D01*
X95760000Y-120735420D02*
X95760000Y-121016580D01*
%TO.C,C37*%
X64740000Y-133960420D02*
X64740000Y-134241580D01*
X65760000Y-133960420D02*
X65760000Y-134241580D01*
%TO.C,X3*%
X45870000Y-109241000D02*
X47250000Y-109241000D01*
X45870000Y-110621000D02*
X45870000Y-109241000D01*
X45870000Y-111891000D02*
X45870000Y-117081000D01*
X45870000Y-111891000D02*
X48630000Y-111891000D01*
X45870000Y-117081000D02*
X48630000Y-117081000D01*
X48630000Y-111891000D02*
X48630000Y-117081000D01*
%TO.C,C29*%
X89709420Y-113391000D02*
X89990580Y-113391000D01*
X89709420Y-114411000D02*
X89990580Y-114411000D01*
%TO.C,C17*%
X81190580Y-93771000D02*
X80909420Y-93771000D01*
X81190580Y-94791000D02*
X80909420Y-94791000D01*
%TO.C,X_RC1*%
X84470000Y-93301000D02*
X85850000Y-93301000D01*
X84470000Y-94681000D02*
X84470000Y-93301000D01*
X84470000Y-95951000D02*
X84470000Y-103681000D01*
X84470000Y-95951000D02*
X87230000Y-95951000D01*
X84470000Y-103681000D02*
X87230000Y-103681000D01*
X87230000Y-95951000D02*
X87230000Y-103681000D01*
%TO.C,R1*%
X68290000Y-134888258D02*
X68290000Y-134413742D01*
X69335000Y-134888258D02*
X69335000Y-134413742D01*
%TO.C,C18*%
X68260000Y-117860420D02*
X68260000Y-118141580D01*
X69280000Y-117860420D02*
X69280000Y-118141580D01*
%TO.C,X2*%
X97270000Y-119616000D02*
X98650000Y-119616000D01*
X97270000Y-120996000D02*
X97270000Y-119616000D01*
X97270000Y-122266000D02*
X97270000Y-127456000D01*
X97270000Y-122266000D02*
X100030000Y-122266000D01*
X97270000Y-127456000D02*
X100030000Y-127456000D01*
X100030000Y-122266000D02*
X100030000Y-127456000D01*
%TO.C,C33*%
X74629420Y-110491000D02*
X74910580Y-110491000D01*
X74629420Y-111511000D02*
X74910580Y-111511000D01*
%TO.C,C11*%
X52815000Y-104460420D02*
X52815000Y-104741580D01*
X53835000Y-104460420D02*
X53835000Y-104741580D01*
%TO.C,ZQ1*%
X53575000Y-118266000D02*
X59825000Y-118266000D01*
X59825000Y-123136000D02*
X53575000Y-123136000D01*
X53575000Y-123136000D02*
G75*
G02*
X53575000Y-118266000I0J2435000D01*
G01*
X59825000Y-118266000D02*
G75*
G02*
X59825000Y-123136000I0J-2435000D01*
G01*
%TO.C,C21*%
X78340000Y-137341580D02*
X78340000Y-137060420D01*
X79360000Y-137341580D02*
X79360000Y-137060420D01*
%TO.C,C15*%
X54390580Y-124991000D02*
X54109420Y-124991000D01*
X54390580Y-126011000D02*
X54109420Y-126011000D01*
%TO.C,C28*%
X96340000Y-133935420D02*
X96340000Y-134216580D01*
X97360000Y-133935420D02*
X97360000Y-134216580D01*
%TO.C,C39*%
X66165580Y-93890000D02*
X65884420Y-93890000D01*
X66165580Y-94910000D02*
X65884420Y-94910000D01*
%TO.C,C16*%
X70565580Y-110591000D02*
X70284420Y-110591000D01*
X70565580Y-111611000D02*
X70284420Y-111611000D01*
%TO.C,R5*%
X95287258Y-122953500D02*
X94812742Y-122953500D01*
X95287258Y-123998500D02*
X94812742Y-123998500D01*
%TO.C,C8*%
X74815000Y-104035420D02*
X74815000Y-104316580D01*
X75835000Y-104035420D02*
X75835000Y-104316580D01*
%TO.C,C9*%
X65990580Y-122791000D02*
X65709420Y-122791000D01*
X65990580Y-123811000D02*
X65709420Y-123811000D01*
%TO.C,X5*%
X78530000Y-148881000D02*
X78530000Y-147501000D01*
X79910000Y-148881000D02*
X78530000Y-148881000D01*
X81180000Y-146121000D02*
X86370000Y-146121000D01*
X81180000Y-148881000D02*
X81180000Y-146121000D01*
X81180000Y-148881000D02*
X86370000Y-148881000D01*
X86370000Y-148881000D02*
X86370000Y-146121000D01*
%TO.C,R6*%
X50587742Y-112638500D02*
X51062258Y-112638500D01*
X50587742Y-113683500D02*
X51062258Y-113683500D01*
%TO.C,C23*%
X89940000Y-133560420D02*
X89940000Y-133841580D01*
X90960000Y-133560420D02*
X90960000Y-133841580D01*
%TO.C,R4*%
X82062258Y-102358500D02*
X81587742Y-102358500D01*
X82062258Y-103403500D02*
X81587742Y-103403500D01*
%TO.C,R7*%
X69797742Y-93877500D02*
X70272258Y-93877500D01*
X69797742Y-94922500D02*
X70272258Y-94922500D01*
%TO.C,C2*%
X68702500Y-141501580D02*
X68702500Y-141220420D01*
X69722500Y-141501580D02*
X69722500Y-141220420D01*
%TO.C,C7*%
X74815000Y-100916580D02*
X74815000Y-100635420D01*
X75835000Y-100916580D02*
X75835000Y-100635420D01*
%TO.C,C24*%
X75109420Y-130491000D02*
X75390580Y-130491000D01*
X75109420Y-131511000D02*
X75390580Y-131511000D01*
%TO.C,DD4*%
X69150000Y-136801000D02*
X69150000Y-136801000D01*
X69150000Y-137301000D02*
X69150000Y-137001000D01*
X69150000Y-138501000D02*
X69150000Y-138501000D01*
X69150000Y-139001000D02*
X69150000Y-138501000D01*
X69650000Y-136801000D02*
X69350000Y-136801000D01*
X69650000Y-139001000D02*
X69150000Y-139001000D01*
X70850000Y-136801000D02*
X71350000Y-136801000D01*
X70850000Y-139001000D02*
X70850000Y-139001000D01*
X71350000Y-136801000D02*
X71350000Y-137301000D01*
X71350000Y-137301000D02*
X71350000Y-137301000D01*
X71350000Y-138501000D02*
X71350000Y-139001000D01*
X71350000Y-139001000D02*
X70850000Y-139001000D01*
X69150000Y-136801000D02*
X68790000Y-136801000D01*
X69150000Y-136441000D01*
X69150000Y-136801000D01*
G36*
X69150000Y-136801000D02*
G01*
X68790000Y-136801000D01*
X69150000Y-136441000D01*
X69150000Y-136801000D01*
G37*
%TO.C,C36*%
X90109420Y-115391000D02*
X90390580Y-115391000D01*
X90109420Y-116411000D02*
X90390580Y-116411000D01*
%TO.C,R8*%
X82267500Y-143963258D02*
X82267500Y-143488742D01*
X83312500Y-143963258D02*
X83312500Y-143488742D01*
%TD*%
M02*
